<?xml version="1.0" encoding="UTF-8" standalone="no"?>
<!-- Created with Inkscape (http://www.inkscape.org/) -->

<svg
   xmlns:dc="http://purl.org/dc/elements/1.1/"
   xmlns:cc="http://creativecommons.org/ns#"
   xmlns:rdf="http://www.w3.org/1999/02/22-rdf-syntax-ns#"
   xmlns:svg="http://www.w3.org/2000/svg"
   xmlns="http://www.w3.org/2000/svg"
   xmlns:sodipodi="http://sodipodi.sourceforge.net/DTD/sodipodi-0.dtd"
   xmlns:inkscape="http://www.inkscape.org/namespaces/inkscape"
   width="31.889763"
   height="31.889763"
   viewBox="0 0 31.889761 31.889763"
   id="svg10381"
   version="1.1"
   inkscape:version="0.48.4 r9939"
   sodipodi:docname="LQFP32.svg">
  <title
     id="title11005">SMD Diode</title>
  <defs
     id="defs10383" />
  <sodipodi:namedview
     id="base"
     pagecolor="#ffffff"
     bordercolor="#666666"
     borderopacity="1.0"
     inkscape:pageopacity="0.0"
     inkscape:pageshadow="2"
     inkscape:zoom="16"
     inkscape:cx="18.700565"
     inkscape:cy="15.396834"
     inkscape:document-units="px"
     inkscape:current-layer="layer2"
     showgrid="false"
     fit-margin-top="0"
     fit-margin-left="0"
     fit-margin-right="0"
     fit-margin-bottom="0"
     inkscape:window-width="1366"
     inkscape:window-height="744"
     inkscape:window-x="0"
     inkscape:window-y="24"
     inkscape:window-maximized="1"
     units="mm" />
  <metadata
     id="metadata10386">
    <rdf:RDF>
      <cc:Work
         rdf:about="">
        <dc:format>image/svg+xml</dc:format>
        <dc:type
           rdf:resource="http://purl.org/dc/dcmitype/StillImage" />
        <dc:title>SMD Diode</dc:title>
        <cc:license
           rdf:resource="http://creativecommons.org/publicdomain/zero/1.0/" />
        <dc:creator>
          <cc:Agent>
            <dc:title>Florian &quot;adlerweb&quot; Knodt · www.adlerweb.info</dc:title>
          </cc:Agent>
        </dc:creator>
      </cc:Work>
      <cc:License
         rdf:about="http://creativecommons.org/publicdomain/zero/1.0/">
        <cc:permits
           rdf:resource="http://creativecommons.org/ns#Reproduction" />
        <cc:permits
           rdf:resource="http://creativecommons.org/ns#Distribution" />
        <cc:permits
           rdf:resource="http://creativecommons.org/ns#DerivativeWorks" />
      </cc:License>
    </rdf:RDF>
  </metadata>
  <g
     inkscape:label="Ebene 1"
     inkscape:groupmode="layer"
     id="layer1"
     transform="translate(271.14459,324.49067)"
     style="display:none">
    <g
       transform="translate(-653.35101,-604.95987)"
       id="g10962">
      <rect
         ry="0"
         y="286.65656"
         x="382.20642"
         height="25.702442"
         width="67.700294"
         id="rect10268-4-9"
         style="fill:#9a9a9a;fill-opacity:0.7;fill-rule:nonzero;stroke:none" />
      <rect
         style="fill:#2b2b2b;fill-opacity:0.7;fill-rule:nonzero;stroke:none"
         id="rect10270-7-0"
         width="43.810169"
         height="25.677378"
         x="394.15146"
         y="286.66907"
         ry="0" />
      <rect
         y="286.65573"
         x="429.41965"
         height="25.698103"
         width="8.536272"
         id="rect10349"
         style="fill:#d6d6d6;fill-opacity:0.7;fill-rule:nonzero;stroke:none" />
    </g>
  </g>
  <g
     inkscape:groupmode="layer"
     id="layer2"
     inkscape:label="Layer"
     transform="translate(0,9.2125985)">
    <rect
       style="opacity:0.69999999999999996;fill:#000000;fill-opacity:0.69999999999999996;fill-rule:nonzero;stroke:none"
       id="rect10361"
       width="24.80315"
       height="24.80315"
       x="-19.133858"
       y="3.5433054"
       ry="0"
       transform="matrix(0,-1,1,0,0,0)" />
    <path
       style="opacity:0.69999999999999996;color:#000000;fill:#f9f9f9;fill-opacity:0.49019679999999999;fill-rule:nonzero;stroke:none;stroke-width:1;marker:none;visibility:visible;display:inline;overflow:visible;enable-background:accumulate"
       d="m 25.210629,-9.2126002 0,3.5328857 1.3125,0 0,-3.5328857 -1.3125,0 z m 0,28.3568772 0,3.532886 1.3125,0 0,-3.532886 -1.3125,0 z"
       id="rect3027"
       inkscape:connector-curvature="0" />
    <path
       style="opacity:0.69999999999999996;color:#000000;fill:#f9f9f9;fill-opacity:0.49019679999999999;fill-rule:nonzero;stroke:none;stroke-width:1;marker:none;visibility:visible;display:inline;overflow:visible;enable-background:accumulate"
       d="m 22.375983,-9.2125999 0,3.5328857 1.3125,0 0,-3.5328857 -1.3125,0 z m 0,28.3568779 0,3.532886 1.3125,0 0,-3.532886 -1.3125,0 z"
       id="rect3027-9"
       inkscape:connector-curvature="0" />
    <path
       style="opacity:0.69999999999999996;color:#000000;fill:#f9f9f9;fill-opacity:0.49019679999999999;fill-rule:nonzero;stroke:none;stroke-width:1;marker:none;visibility:visible;display:inline;overflow:visible;enable-background:accumulate"
       d="m 19.541338,-9.2125999 0,3.5328857 1.3125,0 0,-3.5328857 -1.3125,0 z m 0,28.3568779 0,3.532886 1.3125,0 0,-3.532886 -1.3125,0 z"
       id="rect3027-5"
       inkscape:connector-curvature="0" />
    <path
       style="opacity:0.69999999999999996;color:#000000;fill:#f9f9f9;fill-opacity:0.49019679999999999;fill-rule:nonzero;stroke:none;stroke-width:1;marker:none;visibility:visible;display:inline;overflow:visible;enable-background:accumulate"
       d="m 16.706692,-9.2125999 0,3.5328857 1.3125,0 0,-3.5328857 -1.3125,0 z m 0,28.3568779 0,3.532886 1.3125,0 0,-3.532886 -1.3125,0 z"
       id="rect3027-1"
       inkscape:connector-curvature="0" />
    <path
       style="opacity:0.69999999999999996;color:#000000;fill:#f9f9f9;fill-opacity:0.49019679999999999;fill-rule:nonzero;stroke:none;stroke-width:1;marker:none;visibility:visible;display:inline;overflow:visible;enable-background:accumulate"
       d="m 13.872046,-9.2125996 0,3.5328857 1.3125,0 0,-3.5328857 -1.3125,0 z m 0,28.3568786 0,3.532886 1.3125,0 0,-3.532886 -1.3125,0 z"
       id="rect3027-17"
       inkscape:connector-curvature="0" />
    <path
       style="opacity:0.69999999999999996;color:#000000;fill:#f9f9f9;fill-opacity:0.49019679999999999;fill-rule:nonzero;stroke:none;stroke-width:1;marker:none;visibility:visible;display:inline;overflow:visible;enable-background:accumulate"
       d="m 11.037401,-9.2125996 0,3.5328857 1.3125,0 0,-3.5328857 -1.3125,0 z m 0,28.3568786 0,3.532886 1.3125,0 0,-3.532886 -1.3125,0 z"
       id="rect3027-56"
       inkscape:connector-curvature="0" />
    <path
       style="opacity:0.69999999999999996;color:#000000;fill:#f9f9f9;fill-opacity:0.49019679999999999;fill-rule:nonzero;stroke:none;stroke-width:1;marker:none;visibility:visible;display:inline;overflow:visible;enable-background:accumulate"
       d="m 8.2027549,-9.2125996 0,3.5328857 1.3125,0 0,-3.5328857 -1.3125,0 z m 0,28.3568786 0,3.532886 1.3125,0 0,-3.532886 -1.3125,0 z"
       id="rect3027-15"
       inkscape:connector-curvature="0" />
    <path
       style="opacity:0.69999999999999996;color:#000000;fill:#f9f9f9;fill-opacity:0.49019679999999999;fill-rule:nonzero;stroke:none;stroke-width:1;marker:none;visibility:visible;display:inline;overflow:visible;enable-background:accumulate"
       d="m 5.3681093,-9.2125996 0,3.5328857 1.3125,0 0,-3.5328857 -1.3125,0 z m 0,28.3568786 0,3.532886 1.3125,0 0,-3.532886 -1.3125,0 z"
       id="rect3027-4"
       inkscape:connector-curvature="0" />
    <path
       style="opacity:0.69999999999999996;color:#000000;fill:#f9f9f9;fill-opacity:0.49019679999999999;fill-rule:nonzero;stroke:none;stroke-width:1;marker:none;visibility:visible;display:inline;overflow:visible;enable-background:accumulate"
       d="m 31.890502,15.997292 -3.532886,0 0,1.3125 3.532886,0 0,-1.3125 z m -28.356877,0 -3.532886,0 0,1.3125 3.532886,0 0,-1.3125 z"
       id="rect3027-47"
       inkscape:connector-curvature="0" />
    <path
       style="opacity:0.69999999999999996;color:#000000;fill:#f9f9f9;fill-opacity:0.49019679999999999;fill-rule:nonzero;stroke:none;stroke-width:1;marker:none;visibility:visible;display:inline;overflow:visible;enable-background:accumulate"
       d="m 31.890502,13.162646 -3.532886,0 0,1.3125 3.532886,0 0,-1.3125 z m -28.356878,0 -3.532886,0 0,1.3125 3.532886,0 0,-1.3125 z"
       id="rect3027-9-3"
       inkscape:connector-curvature="0" />
    <path
       style="opacity:0.69999999999999996;color:#000000;fill:#f9f9f9;fill-opacity:0.49019679999999999;fill-rule:nonzero;stroke:none;stroke-width:1;marker:none;visibility:visible;display:inline;overflow:visible;enable-background:accumulate"
       d="m 31.890502,10.328001 -3.532886,0 0,1.3125 3.532886,0 0,-1.3125 z m -28.356878,0 -3.532886,0 0,1.3125 3.532886,0 0,-1.3125 z"
       id="rect3027-5-4"
       inkscape:connector-curvature="0" />
    <path
       style="opacity:0.69999999999999996;color:#000000;fill:#f9f9f9;fill-opacity:0.49019679999999999;fill-rule:nonzero;stroke:none;stroke-width:1;marker:none;visibility:visible;display:inline;overflow:visible;enable-background:accumulate"
       d="m 31.890502,7.4933552 -3.532886,0 0,1.3125 3.532886,0 0,-1.3125 z m -28.356878,0 -3.532886,0 0,1.3125 3.532886,0 0,-1.3125 z"
       id="rect3027-1-3"
       inkscape:connector-curvature="0" />
    <path
       style="opacity:0.69999999999999996;color:#000000;fill:#f9f9f9;fill-opacity:0.49019679999999999;fill-rule:nonzero;stroke:none;stroke-width:1;marker:none;visibility:visible;display:inline;overflow:visible;enable-background:accumulate"
       d="m 31.890502,4.6587092 -3.532886,0 0,1.3125 3.532886,0 0,-1.3125 z m -28.356879,0 -3.532886,0 0,1.3125 3.532886,0 0,-1.3125 z"
       id="rect3027-17-1"
       inkscape:connector-curvature="0" />
    <path
       style="opacity:0.69999999999999996;color:#000000;fill:#f9f9f9;fill-opacity:0.49019679999999999;fill-rule:nonzero;stroke:none;stroke-width:1;marker:none;visibility:visible;display:inline;overflow:visible;enable-background:accumulate"
       d="m 31.890502,1.8240642 -3.532886,0 0,1.3125 3.532886,0 0,-1.3125 z m -28.356879,0 -3.532886,0 0,1.3125 3.532886,0 0,-1.3125 z"
       id="rect3027-56-3"
       inkscape:connector-curvature="0" />
    <path
       style="opacity:0.69999999999999996;color:#000000;fill:#f9f9f9;fill-opacity:0.49019679999999999;fill-rule:nonzero;stroke:none;stroke-width:1;marker:none;visibility:visible;display:inline;overflow:visible;enable-background:accumulate"
       d="m 31.890502,-1.0105819 -3.532886,0 0,1.3125 3.532886,0 0,-1.3125 z m -28.356879,0 -3.532886,0 0,1.3125 3.532886,0 0,-1.3125 z"
       id="rect3027-15-3"
       inkscape:connector-curvature="0" />
    <path
       style="opacity:0.69999999999999996;color:#000000;fill:#f9f9f9;fill-opacity:0.49019679999999999;fill-rule:nonzero;stroke:none;stroke-width:1;marker:none;visibility:visible;display:inline;overflow:visible;enable-background:accumulate"
       d="m 31.890502,-3.8452275 -3.532886,0 0,1.3125 3.532886,0 0,-1.3125 z m -28.356879,0 -3.532886,0 0,1.3125 3.532886,0 0,-1.3125 z"
       id="rect3027-4-9"
       inkscape:connector-curvature="0" />
    <text
       xml:space="preserve"
       style="font-size:10px;font-style:normal;font-weight:normal;line-height:125%;letter-spacing:0px;word-spacing:0px;opacity:0.69999999999999996;fill:#ffffff;fill-opacity:1;stroke:none;font-family:Sans"
       x="4.5615797"
       y="8.5721264"
       id="text3176"
       sodipodi:linespacing="125%"><tspan
         sodipodi:role="line"
         id="tspan3178"
         x="4.5615797"
         y="8.5721264"
         style="font-size:6px;fill:#ffffff">LQFP32</tspan></text>
  </g>
</svg>
