<?xml version="1.0" encoding="UTF-8" standalone="no"?>
<!-- Created with Inkscape (http://www.inkscape.org/) -->

<svg
   xmlns:dc="http://purl.org/dc/elements/1.1/"
   xmlns:cc="http://creativecommons.org/ns#"
   xmlns:rdf="http://www.w3.org/1999/02/22-rdf-syntax-ns#"
   xmlns:svg="http://www.w3.org/2000/svg"
   xmlns="http://www.w3.org/2000/svg"
   xmlns:sodipodi="http://sodipodi.sourceforge.net/DTD/sodipodi-0.dtd"
   xmlns:inkscape="http://www.inkscape.org/namespaces/inkscape"
   width="31.889763"
   height="31.889763"
   viewBox="0 0 31.889761 31.889763"
   id="svg10381"
   version="1.1"
   inkscape:version="0.48.4 r9939"
   sodipodi:docname="LQFP48.svg">
  <title
     id="title11005">SMD Diode</title>
  <defs
     id="defs10383" />
  <sodipodi:namedview
     id="base"
     pagecolor="#ffffff"
     bordercolor="#666666"
     borderopacity="1.0"
     inkscape:pageopacity="0.0"
     inkscape:pageshadow="2"
     inkscape:zoom="15.839192"
     inkscape:cx="13.853417"
     inkscape:cy="17.607344"
     inkscape:document-units="px"
     inkscape:current-layer="layer2"
     showgrid="false"
     fit-margin-top="0"
     fit-margin-left="0"
     fit-margin-right="0"
     fit-margin-bottom="0"
     inkscape:window-width="1366"
     inkscape:window-height="744"
     inkscape:window-x="0"
     inkscape:window-y="24"
     inkscape:window-maximized="1"
     units="mm" />
  <metadata
     id="metadata10386">
    <rdf:RDF>
      <cc:Work
         rdf:about="">
        <dc:format>image/svg+xml</dc:format>
        <dc:type
           rdf:resource="http://purl.org/dc/dcmitype/StillImage" />
        <dc:title>SMD Diode</dc:title>
        <cc:license
           rdf:resource="http://creativecommons.org/publicdomain/zero/1.0/" />
        <dc:creator>
          <cc:Agent>
            <dc:title>Florian &quot;adlerweb&quot; Knodt · www.adlerweb.info</dc:title>
          </cc:Agent>
        </dc:creator>
      </cc:Work>
      <cc:License
         rdf:about="http://creativecommons.org/publicdomain/zero/1.0/">
        <cc:permits
           rdf:resource="http://creativecommons.org/ns#Reproduction" />
        <cc:permits
           rdf:resource="http://creativecommons.org/ns#Distribution" />
        <cc:permits
           rdf:resource="http://creativecommons.org/ns#DerivativeWorks" />
      </cc:License>
    </rdf:RDF>
  </metadata>
  <g
     inkscape:label="Ebene 1"
     inkscape:groupmode="layer"
     id="layer1"
     transform="translate(271.14459,324.49067)"
     style="display:none">
    <g
       transform="translate(-653.35101,-604.95987)"
       id="g10962">
      <rect
         ry="0"
         y="286.65656"
         x="382.20642"
         height="25.702442"
         width="67.700294"
         id="rect10268-4-9"
         style="fill:#9a9a9a;fill-opacity:0.7;fill-rule:nonzero;stroke:none" />
      <rect
         style="fill:#2b2b2b;fill-opacity:0.7;fill-rule:nonzero;stroke:none"
         id="rect10270-7-0"
         width="43.810169"
         height="25.677378"
         x="394.15146"
         y="286.66907"
         ry="0" />
      <rect
         y="286.65573"
         x="429.41965"
         height="25.698103"
         width="8.536272"
         id="rect10349"
         style="fill:#d6d6d6;fill-opacity:0.7;fill-rule:nonzero;stroke:none" />
    </g>
  </g>
  <g
     inkscape:groupmode="layer"
     id="layer2"
     inkscape:label="Layer"
     transform="translate(0,9.2125981)">
    <rect
       style="opacity:0.69999999999999996;fill:#000000;fill-opacity:0.69999999999999996;fill-rule:nonzero;stroke:none"
       id="rect10361"
       width="24.80315"
       height="24.80315"
       x="-19.133858"
       y="3.5433054"
       ry="0"
       transform="matrix(0,-1,1,0,0,0)" />
    <path
       style="opacity:0.69999999999999996;fill:#f9f9f9;fill-opacity:0.69999999999999996;fill-rule:nonzero;stroke:none"
       d="m 5.8110226,-9.2125991 0,3.4549792 0.7795276,0 0,-3.4549792 -0.7795276,0 z m 0,28.4347851 0,3.454979 0.7795276,0 0,-3.454979 -0.7795276,0 z"
       id="rect10365-7"
       inkscape:connector-curvature="0" />
    <path
       style="opacity:0.69999999999999996;fill:#f9f9f9;fill-opacity:0.69999999999999996;fill-rule:nonzero;stroke:none"
       d="m 25.299212,-9.2125992 0,3.4549792 0.779527,0 0,-3.4549792 -0.779527,0 z m 0,28.4347852 0,3.454979 0.779527,0 0,-3.454979 -0.779527,0 z"
       id="rect10365-7-3"
       inkscape:connector-curvature="0" />
    <path
       style="opacity:0.69999999999999996;fill:#f9f9f9;fill-opacity:0.69999999999999996;fill-rule:nonzero;stroke:none"
       d="m 21.755905,-9.2125992 0,3.4549792 0.779527,0 0,-3.4549792 -0.779527,0 z m 0,28.4347852 0,3.454979 0.779527,0 0,-3.454979 -0.779527,0 z"
       id="rect10365-7-7"
       inkscape:connector-curvature="0" />
    <path
       style="opacity:0.69999999999999996;fill:#f9f9f9;fill-opacity:0.69999999999999996;fill-rule:nonzero;stroke:none"
       d="m 18.212597,-9.2125992 0,3.4549792 0.779528,0 0,-3.4549792 -0.779528,0 z m 0,28.4347852 0,3.454979 0.779528,0 0,-3.454979 -0.779528,0 z"
       id="rect10365-7-4"
       inkscape:connector-curvature="0" />
    <path
       style="opacity:0.69999999999999996;fill:#f9f9f9;fill-opacity:0.69999999999999996;fill-rule:nonzero;stroke:none"
       d="m 14.66929,-9.2125992 0,3.4549792 0.779528,0 0,-3.4549792 -0.779528,0 z m 0,28.4347852 0,3.454979 0.779528,0 0,-3.454979 -0.779528,0 z"
       id="rect10365-7-6"
       inkscape:connector-curvature="0" />
    <path
       style="opacity:0.69999999999999996;fill:#f9f9f9;fill-opacity:0.69999999999999996;fill-rule:nonzero;stroke:none"
       d="m 23.527558,-9.2125992 0,3.4549792 0.779528,0 0,-3.4549792 -0.779528,0 z m 0,28.4347852 0,3.454979 0.779528,0 0,-3.454979 -0.779528,0 z"
       id="rect10365-7-5"
       inkscape:connector-curvature="0" />
    <path
       style="opacity:0.69999999999999996;fill:#f9f9f9;fill-opacity:0.69999999999999996;fill-rule:nonzero;stroke:none"
       d="m 19.984251,-9.2125992 0,3.4549792 0.779528,0 0,-3.4549792 -0.779528,0 z m 0,28.4347852 0,3.454979 0.779528,0 0,-3.454979 -0.779528,0 z"
       id="rect10365-7-9"
       inkscape:connector-curvature="0" />
    <path
       style="opacity:0.69999999999999996;fill:#f9f9f9;fill-opacity:0.69999999999999996;fill-rule:nonzero;stroke:none"
       d="m 16.440944,-9.2125992 0,3.4549792 0.779528,0 0,-3.4549792 -0.779528,0 z m 0,28.4347852 0,3.454979 0.779528,0 0,-3.454979 -0.779528,0 z"
       id="rect10365-7-51"
       inkscape:connector-curvature="0" />
    <path
       style="opacity:0.69999999999999996;fill:#f9f9f9;fill-opacity:0.69999999999999996;fill-rule:nonzero;stroke:none"
       d="m 12.897637,-9.2125992 0,3.4549792 0.779527,0 0,-3.4549792 -0.779527,0 z m 0,28.4347852 0,3.454979 0.779527,0 0,-3.454979 -0.779527,0 z"
       id="rect10365-7-69"
       inkscape:connector-curvature="0" />
    <path
       style="opacity:0.69999999999999996;fill:#f9f9f9;fill-opacity:0.69999999999999996;fill-rule:nonzero;stroke:none"
       d="m 11.125983,-9.2125992 0,3.4549792 0.779528,0 0,-3.4549792 -0.779528,0 z m 0,28.4347852 0,3.454979 0.779528,0 0,-3.454979 -0.779528,0 z"
       id="rect10365-7-97"
       inkscape:connector-curvature="0" />
    <path
       style="opacity:0.69999999999999996;fill:#f9f9f9;fill-opacity:0.69999999999999996;fill-rule:nonzero;stroke:none"
       d="m 9.3543297,-9.2125992 0,3.4549792 0.7795273,0 0,-3.4549792 -0.7795273,0 z m 0,28.4347852 0,3.454979 0.7795273,0 0,-3.454979 -0.7795273,0 z"
       id="rect10365-7-43"
       inkscape:connector-curvature="0" />
    <path
       style="opacity:0.69999999999999996;fill:#f9f9f9;fill-opacity:0.69999999999999996;fill-rule:nonzero;stroke:none"
       d="m 7.5826762,-9.2125992 0,3.4549792 0.7795276,0 0,-3.4549792 -0.7795276,0 z m 0,28.4347852 0,3.454979 0.7795276,0 0,-3.454979 -0.7795276,0 z"
       id="rect10365-7-55"
       inkscape:connector-curvature="0" />
    <path
       style="opacity:0.69999999999999996;fill:#f9f9f9;fill-opacity:0.69999999999999996;fill-rule:nonzero;stroke:none"
       d="m 31.889763,-3.4015753 -3.454979,0 0,0.7795276 3.454979,0 0,-0.7795276 z m -28.434785,0 -3.454979,0 0,0.7795276 3.454979,0 0,-0.7795276 z"
       id="rect10365-7-67"
       inkscape:connector-curvature="0" />
    <path
       style="opacity:0.69999999999999996;fill:#f9f9f9;fill-opacity:0.69999999999999996;fill-rule:nonzero;stroke:none"
       d="m 31.889763,16.086614 -3.454979,0 0,0.779527 3.454979,0 0,-0.779527 z m -28.434785,0 -3.454979,0 0,0.779527 3.454979,0 0,-0.779527 z"
       id="rect10365-7-3-7"
       inkscape:connector-curvature="0" />
    <path
       style="opacity:0.69999999999999996;fill:#f9f9f9;fill-opacity:0.69999999999999996;fill-rule:nonzero;stroke:none"
       d="m 31.889763,12.543307 -3.454979,0 0,0.779527 3.454979,0 0,-0.779527 z m -28.434785,0 -3.454979,0 0,0.779527 3.454979,0 0,-0.779527 z"
       id="rect10365-7-7-3"
       inkscape:connector-curvature="0" />
    <path
       style="opacity:0.69999999999999996;fill:#f9f9f9;fill-opacity:0.69999999999999996;fill-rule:nonzero;stroke:none"
       d="m 31.889763,8.9999991 -3.454979,0 0,0.779528 3.454979,0 0,-0.779528 z m -28.434785,0 -3.454979,0 0,0.779528 3.454979,0 0,-0.779528 z"
       id="rect10365-7-4-4"
       inkscape:connector-curvature="0" />
    <path
       style="opacity:0.69999999999999996;fill:#f9f9f9;fill-opacity:0.69999999999999996;fill-rule:nonzero;stroke:none"
       d="m 31.889763,5.4566921 -3.454979,0 0,0.779528 3.454979,0 0,-0.779528 z m -28.434785,0 -3.454979,0 0,0.779528 3.454979,0 0,-0.779528 z"
       id="rect10365-7-6-0"
       inkscape:connector-curvature="0" />
    <path
       style="opacity:0.69999999999999996;fill:#f9f9f9;fill-opacity:0.69999999999999996;fill-rule:nonzero;stroke:none"
       d="m 31.889763,14.31496 -3.454979,0 0,0.779528 3.454979,0 0,-0.779528 z m -28.434785,0 -3.454979,0 0,0.779528 3.454979,0 0,-0.779528 z"
       id="rect10365-7-5-9"
       inkscape:connector-curvature="0" />
    <path
       style="opacity:0.69999999999999996;fill:#f9f9f9;fill-opacity:0.69999999999999996;fill-rule:nonzero;stroke:none"
       d="m 31.889763,10.771653 -3.454979,0 0,0.779528 3.454979,0 0,-0.779528 z m -28.434785,0 -3.454979,0 0,0.779528 3.454979,0 0,-0.779528 z"
       id="rect10365-7-9-5"
       inkscape:connector-curvature="0" />
    <path
       style="opacity:0.69999999999999996;fill:#f9f9f9;fill-opacity:0.69999999999999996;fill-rule:nonzero;stroke:none"
       d="m 31.889763,7.2283461 -3.454979,0 0,0.779528 3.454979,0 0,-0.779528 z m -28.434785,0 -3.454979,0 0,0.779528 3.454979,0 0,-0.779528 z"
       id="rect10365-7-51-6"
       inkscape:connector-curvature="0" />
    <path
       style="opacity:0.69999999999999996;fill:#f9f9f9;fill-opacity:0.69999999999999996;fill-rule:nonzero;stroke:none"
       d="m 31.889763,3.6850391 -3.454979,0 0,0.779527 3.454979,0 0,-0.779527 z m -28.434785,0 -3.454979,0 0,0.779527 3.454979,0 0,-0.779527 z"
       id="rect10365-7-69-8"
       inkscape:connector-curvature="0" />
    <path
       style="opacity:0.69999999999999996;fill:#f9f9f9;fill-opacity:0.69999999999999996;fill-rule:nonzero;stroke:none"
       d="m 31.889763,1.9133851 -3.454979,0 0,0.779528 3.454979,0 0,-0.779528 z m -28.434785,0 -3.454979,0 0,0.779528 3.454979,0 0,-0.779528 z"
       id="rect10365-7-97-3"
       inkscape:connector-curvature="0" />
    <path
       style="opacity:0.69999999999999996;fill:#f9f9f9;fill-opacity:0.69999999999999996;fill-rule:nonzero;stroke:none"
       d="m 31.889763,0.1417318 -3.454979,0 0,0.7795273 3.454979,0 0,-0.7795273 z m -28.434785,0 -3.454979,0 0,0.7795273 3.454979,0 0,-0.7795273 z"
       id="rect10365-7-43-6"
       inkscape:connector-curvature="0" />
    <path
       style="opacity:0.69999999999999996;fill:#f9f9f9;fill-opacity:0.69999999999999996;fill-rule:nonzero;stroke:none"
       d="m 31.889763,-1.6299217 -3.454979,0 0,0.7795276 3.454979,0 0,-0.7795276 z m -28.434785,0 -3.454979,0 0,0.7795276 3.454979,0 0,-0.7795276 z"
       id="rect10365-7-55-0"
       inkscape:connector-curvature="0" />
    <text
       xml:space="preserve"
       style="font-size:6px;font-style:normal;font-weight:normal;line-height:125%;letter-spacing:0px;word-spacing:0px;fill:#ffffff;fill-opacity:1;stroke:none;font-family:Sans;opacity:0.69999999999999996"
       x="4.4663649"
       y="8.5721273"
       id="text3169"
       sodipodi:linespacing="125%"><tspan
         sodipodi:role="line"
         x="4.4663649"
         y="8.5721273"
         id="tspan3173"
         style="opacity:0.69999999999999996;fill:#ffffff">LQFP48</tspan></text>
  </g>
</svg>
