<?xml version="1.0" encoding="UTF-8" standalone="no"?>
<!-- Created with Inkscape (http://www.inkscape.org/) -->

<svg
   xmlns:dc="http://purl.org/dc/elements/1.1/"
   xmlns:cc="http://creativecommons.org/ns#"
   xmlns:rdf="http://www.w3.org/1999/02/22-rdf-syntax-ns#"
   xmlns:svg="http://www.w3.org/2000/svg"
   xmlns="http://www.w3.org/2000/svg"
   xmlns:sodipodi="http://sodipodi.sourceforge.net/DTD/sodipodi-0.dtd"
   xmlns:inkscape="http://www.inkscape.org/namespaces/inkscape"
   width="42.519684"
   height="42.519684"
   viewBox="0 0 42.519681 42.519683"
   id="svg10381"
   version="1.1"
   inkscape:version="0.48.4 r9939"
   sodipodi:docname="LQFP64.svg">
  <title
     id="title11005">SMD Diode</title>
  <defs
     id="defs10383" />
  <sodipodi:namedview
     id="base"
     pagecolor="#ffffff"
     bordercolor="#666666"
     borderopacity="1.0"
     inkscape:pageopacity="0.0"
     inkscape:pageshadow="2"
     inkscape:zoom="11.2"
     inkscape:cx="27.798222"
     inkscape:cy="22.774112"
     inkscape:document-units="px"
     inkscape:current-layer="layer2"
     showgrid="false"
     fit-margin-top="0"
     fit-margin-left="0"
     fit-margin-right="0"
     fit-margin-bottom="0"
     inkscape:window-width="1366"
     inkscape:window-height="744"
     inkscape:window-x="0"
     inkscape:window-y="24"
     inkscape:window-maximized="1"
     units="mm" />
  <metadata
     id="metadata10386">
    <rdf:RDF>
      <cc:Work
         rdf:about="">
        <dc:format>image/svg+xml</dc:format>
        <dc:type
           rdf:resource="http://purl.org/dc/dcmitype/StillImage" />
        <dc:title>SMD Diode</dc:title>
        <cc:license
           rdf:resource="http://creativecommons.org/publicdomain/zero/1.0/" />
        <dc:creator>
          <cc:Agent>
            <dc:title>Florian &quot;adlerweb&quot; Knodt · www.adlerweb.info</dc:title>
          </cc:Agent>
        </dc:creator>
      </cc:Work>
      <cc:License
         rdf:about="http://creativecommons.org/publicdomain/zero/1.0/">
        <cc:permits
           rdf:resource="http://creativecommons.org/ns#Reproduction" />
        <cc:permits
           rdf:resource="http://creativecommons.org/ns#Distribution" />
        <cc:permits
           rdf:resource="http://creativecommons.org/ns#DerivativeWorks" />
      </cc:License>
    </rdf:RDF>
  </metadata>
  <g
     inkscape:label="Ebene 1"
     inkscape:groupmode="layer"
     id="layer1"
     transform="translate(271.14459,335.1206)"
     style="display:none">
    <g
       transform="translate(-653.35101,-604.95987)"
       id="g10962">
      <rect
         ry="0"
         y="286.65656"
         x="382.20642"
         height="25.702442"
         width="67.700294"
         id="rect10268-4-9"
         style="fill:#9a9a9a;fill-opacity:0.7;fill-rule:nonzero;stroke:none" />
      <rect
         style="fill:#2b2b2b;fill-opacity:0.7;fill-rule:nonzero;stroke:none"
         id="rect10270-7-0"
         width="43.810169"
         height="25.677378"
         x="394.15146"
         y="286.66907"
         ry="0" />
      <rect
         y="286.65573"
         x="429.41965"
         height="25.698103"
         width="8.536272"
         id="rect10349"
         style="fill:#d6d6d6;fill-opacity:0.7;fill-rule:nonzero;stroke:none" />
    </g>
  </g>
  <g
     inkscape:groupmode="layer"
     id="layer2"
     inkscape:label="Layer"
     transform="translate(0,19.842521)">
    <rect
       style="opacity:0.69999999999999996;fill:#000000;fill-opacity:0.69999999999999996;fill-rule:nonzero;stroke:none"
       id="rect10361"
       width="35.433071"
       height="35.433071"
       x="-19.133856"
       y="3.5433049"
       ry="0"
       transform="matrix(0,-1,1,0,0,0)" />
    <path
       style="opacity:0.7;fill:#f9f9f9;fill-opacity:0.69999999999999996;fill-rule:nonzero;stroke:none"
       d="m 7.582676,-19.842522 0,3.474132 0.7795275,0 0,-3.474132 -0.7795275,0 z m 0,39.045552 0,3.474132 0.7795275,0 0,-3.474132 -0.7795275,0 z"
       id="rect10365-7"
       inkscape:connector-curvature="0" />
    <path
       style="opacity:0.7;fill:#f9f9f9;fill-opacity:0.69999999999999996;fill-rule:nonzero;stroke:none"
       d="m 34.157479,-19.842522 0,3.474132 0.779527,0 0,-3.474132 -0.779527,0 z m 0,39.045551 0,3.474132 0.779527,0 0,-3.474132 -0.779527,0 z"
       id="rect10365-7-2"
       inkscape:connector-curvature="0" />
    <path
       style="opacity:0.7;fill:#f9f9f9;fill-opacity:0.69999999999999996;fill-rule:nonzero;stroke:none"
       d="m 30.614172,-19.842522 0,3.474132 0.779527,0 0,-3.474132 -0.779527,0 z m 0,39.045551 0,3.474132 0.779527,0 0,-3.474132 -0.779527,0 z"
       id="rect10365-7-7"
       inkscape:connector-curvature="0" />
    <path
       style="opacity:0.7;fill:#f9f9f9;fill-opacity:0.69999999999999996;fill-rule:nonzero;stroke:none"
       d="m 23.527558,-19.842522 0,3.474132 0.779527,0 0,-3.474132 -0.779527,0 z m 0,39.045551 0,3.474132 0.779527,0 0,-3.474132 -0.779527,0 z"
       id="rect10365-7-75"
       inkscape:connector-curvature="0" />
    <path
       style="opacity:0.7;fill:#f9f9f9;fill-opacity:0.69999999999999996;fill-rule:nonzero;stroke:none"
       d="m 27.070865,-19.842522 0,3.474132 0.779527,0 0,-3.474132 -0.779527,0 z m 0,39.045551 0,3.474132 0.779527,0 0,-3.474132 -0.779527,0 z"
       id="rect10365-7-3"
       inkscape:connector-curvature="0" />
    <path
       style="opacity:0.7;fill:#f9f9f9;fill-opacity:0.69999999999999996;fill-rule:nonzero;stroke:none"
       d="m 19.984251,-19.842522 0,3.474132 0.779527,0 0,-3.474132 -0.779527,0 z m 0,39.045551 0,3.474132 0.779527,0 0,-3.474132 -0.779527,0 z"
       id="rect10365-7-1"
       inkscape:connector-curvature="0" />
    <path
       style="opacity:0.7;fill:#f9f9f9;fill-opacity:0.69999999999999996;fill-rule:nonzero;stroke:none"
       d="m 16.440944,-19.842522 0,3.474132 0.779527,0 0,-3.474132 -0.779527,0 z m 0,39.045551 0,3.474132 0.779527,0 0,-3.474132 -0.779527,0 z"
       id="rect10365-7-29"
       inkscape:connector-curvature="0" />
    <path
       style="opacity:0.7;fill:#f9f9f9;fill-opacity:0.69999999999999996;fill-rule:nonzero;stroke:none"
       d="m 12.897637,-19.842522 0,3.474132 0.779527,0 0,-3.474132 -0.779527,0 z m 0,39.045551 0,3.474132 0.779527,0 0,-3.474132 -0.779527,0 z"
       id="rect10365-7-9"
       inkscape:connector-curvature="0" />
    <path
       style="opacity:0.7;fill:#f9f9f9;fill-opacity:0.69999999999999996;fill-rule:nonzero;stroke:none"
       d="m 28.842518,-19.842522 0,3.474132 0.779528,0 0,-3.474132 -0.779528,0 z m 0,39.045551 0,3.474132 0.779528,0 0,-3.474132 -0.779528,0 z"
       id="rect10365-7-5"
       inkscape:connector-curvature="0" />
    <path
       style="opacity:0.7;fill:#f9f9f9;fill-opacity:0.69999999999999996;fill-rule:nonzero;stroke:none"
       d="m 32.385825,-19.842522 0,3.474132 0.779527,0 0,-3.474132 -0.779527,0 z m 0,39.045551 0,3.474132 0.779527,0 0,-3.474132 -0.779527,0 z"
       id="rect10365-7-77"
       inkscape:connector-curvature="0" />
    <path
       style="opacity:0.7;fill:#f9f9f9;fill-opacity:0.69999999999999996;fill-rule:nonzero;stroke:none"
       d="m 25.299211,-19.842522 0,3.474132 0.779527,0 0,-3.474132 -0.779527,0 z m 0,39.045551 0,3.474132 0.779527,0 0,-3.474132 -0.779527,0 z"
       id="rect10365-7-6"
       inkscape:connector-curvature="0" />
    <path
       style="opacity:0.7;fill:#f9f9f9;fill-opacity:0.69999999999999996;fill-rule:nonzero;stroke:none"
       d="m 21.755904,-19.842522 0,3.474132 0.779527,0 0,-3.474132 -0.779527,0 z m 0,39.045551 0,3.474132 0.779527,0 0,-3.474132 -0.779527,0 z"
       id="rect10365-7-21"
       inkscape:connector-curvature="0" />
    <path
       style="opacity:0.7;fill:#f9f9f9;fill-opacity:0.69999999999999996;fill-rule:nonzero;stroke:none"
       d="m 18.212597,-19.842522 0,3.474132 0.779527,0 0,-3.474132 -0.779527,0 z m 0,39.045551 0,3.474132 0.779527,0 0,-3.474132 -0.779527,0 z"
       id="rect10365-7-71"
       inkscape:connector-curvature="0" />
    <path
       style="opacity:0.7;fill:#f9f9f9;fill-opacity:0.69999999999999996;fill-rule:nonzero;stroke:none"
       d="m 14.66929,-19.842522 0,3.474132 0.779527,0 0,-3.474132 -0.779527,0 z m 0,39.045551 0,3.474132 0.779527,0 0,-3.474132 -0.779527,0 z"
       id="rect10365-7-96"
       inkscape:connector-curvature="0" />
    <path
       style="opacity:0.7;fill:#f9f9f9;fill-opacity:0.69999999999999996;fill-rule:nonzero;stroke:none"
       d="m 11.125983,-19.842522 0,3.474132 0.779527,0 0,-3.474132 -0.779527,0 z m 0,39.045551 0,3.474132 0.779527,0 0,-3.474132 -0.779527,0 z"
       id="rect10365-7-61"
       inkscape:connector-curvature="0" />
    <path
       style="opacity:0.7;fill:#f9f9f9;fill-opacity:0.69999999999999996;fill-rule:nonzero;stroke:none"
       d="m 9.3543295,-19.842522 0,3.474132 0.7795275,0 0,-3.474132 -0.7795275,0 z m 0,39.045551 0,3.474132 0.7795275,0 0,-3.474132 -0.7795275,0 z"
       id="rect10365-7-16"
       inkscape:connector-curvature="0" />
    <path
       style="opacity:0.7;fill:#f9f9f9;fill-opacity:0.69999999999999996;fill-rule:nonzero;stroke:none"
       d="m 42.519683,-12.259845 -3.474132,0 0,0.779527 3.474132,0 0,-0.779527 z m -39.045552,0 -3.474132,0 0,0.779527 3.474132,0 0,-0.779527 z"
       id="rect10365-7-4"
       inkscape:connector-curvature="0" />
    <path
       style="opacity:0.7;fill:#f9f9f9;fill-opacity:0.69999999999999996;fill-rule:nonzero;stroke:none"
       d="m 42.519683,14.314958 -3.474132,0 0,0.779527 3.474132,0 0,-0.779527 z m -39.045551,0 -3.474132,0 0,0.779527 3.474132,0 0,-0.779527 z"
       id="rect10365-7-2-0"
       inkscape:connector-curvature="0" />
    <path
       style="opacity:0.7;fill:#f9f9f9;fill-opacity:0.69999999999999996;fill-rule:nonzero;stroke:none"
       d="m 42.519683,10.771651 -3.474132,0 0,0.779527 3.474132,0 0,-0.779527 z m -39.045551,0 -3.474132,0 0,0.779527 3.474132,0 0,-0.779527 z"
       id="rect10365-7-7-6"
       inkscape:connector-curvature="0" />
    <path
       style="opacity:0.7;fill:#f9f9f9;fill-opacity:0.69999999999999996;fill-rule:nonzero;stroke:none"
       d="m 42.519683,3.685037 -3.474132,0 0,0.779527 3.474132,0 0,-0.779527 z m -39.045551,0 -3.474132,0 0,0.779527 3.474132,0 0,-0.779527 z"
       id="rect10365-7-75-2"
       inkscape:connector-curvature="0" />
    <path
       style="opacity:0.7;fill:#f9f9f9;fill-opacity:0.69999999999999996;fill-rule:nonzero;stroke:none"
       d="m 42.519683,7.228344 -3.474132,0 0,0.779527 3.474132,0 0,-0.779527 z m -39.045551,0 -3.474132,0 0,0.779527 3.474132,0 0,-0.779527 z"
       id="rect10365-7-3-7"
       inkscape:connector-curvature="0" />
    <path
       style="opacity:0.7;fill:#f9f9f9;fill-opacity:0.69999999999999996;fill-rule:nonzero;stroke:none"
       d="m 42.519683,0.14173 -3.474132,0 0,0.779527 3.474132,0 0,-0.779527 z m -39.045551,0 -3.474132,0 0,0.779527 3.474132,0 0,-0.779527 z"
       id="rect10365-7-1-5"
       inkscape:connector-curvature="0" />
    <path
       style="opacity:0.7;fill:#f9f9f9;fill-opacity:0.69999999999999996;fill-rule:nonzero;stroke:none"
       d="m 42.519683,-3.401577 -3.474132,0 0,0.779527 3.474132,0 0,-0.779527 z m -39.045551,0 -3.474132,0 0,0.779527 3.474132,0 0,-0.779527 z"
       id="rect10365-7-29-5"
       inkscape:connector-curvature="0" />
    <path
       style="opacity:0.7;fill:#f9f9f9;fill-opacity:0.69999999999999996;fill-rule:nonzero;stroke:none"
       d="m 42.519683,-6.944884 -3.474132,0 0,0.779527 3.474132,0 0,-0.779527 z m -39.045551,0 -3.474132,0 0,0.779527 3.474132,0 0,-0.779527 z"
       id="rect10365-7-9-9"
       inkscape:connector-curvature="0" />
    <path
       style="opacity:0.7;fill:#f9f9f9;fill-opacity:0.69999999999999996;fill-rule:nonzero;stroke:none"
       d="m 42.519683,8.999997 -3.474132,0 0,0.779528 3.474132,0 0,-0.779528 z m -39.045551,0 -3.474132,0 0,0.779528 3.474132,0 0,-0.779528 z"
       id="rect10365-7-5-4"
       inkscape:connector-curvature="0" />
    <path
       style="opacity:0.7;fill:#f9f9f9;fill-opacity:0.69999999999999996;fill-rule:nonzero;stroke:none"
       d="m 42.519683,12.543304 -3.474132,0 0,0.779527 3.474132,0 0,-0.779527 z m -39.045551,0 -3.474132,0 0,0.779527 3.474132,0 0,-0.779527 z"
       id="rect10365-7-77-3"
       inkscape:connector-curvature="0" />
    <path
       style="opacity:0.7;fill:#f9f9f9;fill-opacity:0.69999999999999996;fill-rule:nonzero;stroke:none"
       d="m 42.519683,5.45669 -3.474132,0 0,0.779527 3.474132,0 0,-0.779527 z m -39.045551,0 -3.474132,0 0,0.779527 3.474132,0 0,-0.779527 z"
       id="rect10365-7-6-6"
       inkscape:connector-curvature="0" />
    <path
       style="opacity:0.7;fill:#f9f9f9;fill-opacity:0.69999999999999996;fill-rule:nonzero;stroke:none"
       d="m 42.519683,1.913383 -3.474132,0 0,0.779527 3.474132,0 0,-0.779527 z m -39.045551,0 -3.474132,0 0,0.779527 3.474132,0 0,-0.779527 z"
       id="rect10365-7-21-0"
       inkscape:connector-curvature="0" />
    <path
       style="opacity:0.7;fill:#f9f9f9;fill-opacity:0.69999999999999996;fill-rule:nonzero;stroke:none"
       d="m 42.519683,-1.629924 -3.474132,0 0,0.779527 3.474132,0 0,-0.779527 z m -39.045551,0 -3.474132,0 0,0.779527 3.474132,0 0,-0.779527 z"
       id="rect10365-7-71-6"
       inkscape:connector-curvature="0" />
    <path
       style="opacity:0.7;fill:#f9f9f9;fill-opacity:0.69999999999999996;fill-rule:nonzero;stroke:none"
       d="m 42.519683,-5.173231 -3.474132,0 0,0.779527 3.474132,0 0,-0.779527 z m -39.045551,0 -3.474132,0 0,0.779527 3.474132,0 0,-0.779527 z"
       id="rect10365-7-96-8"
       inkscape:connector-curvature="0" />
    <path
       style="opacity:0.7;fill:#f9f9f9;fill-opacity:0.69999999999999996;fill-rule:nonzero;stroke:none"
       d="m 42.519683,-8.716538 -3.474132,0 0,0.779527 3.474132,0 0,-0.779527 z m -39.045551,0 -3.474132,0 0,0.779527 3.474132,0 0,-0.779527 z"
       id="rect10365-7-61-9"
       inkscape:connector-curvature="0" />
    <path
       style="opacity:0.7;fill:#f9f9f9;fill-opacity:0.69999999999999996;fill-rule:nonzero;stroke:none"
       d="m 42.519683,-10.488192 -3.474132,0 0,0.779528 3.474132,0 0,-0.779528 z m -39.045551,0 -3.474132,0 0,0.779528 3.474132,0 0,-0.779528 z"
       id="rect10365-7-16-7"
       inkscape:connector-curvature="0" />
    <text
       xml:space="preserve"
       style="font-size:6px;font-style:normal;font-weight:normal;line-height:125%;letter-spacing:0px;word-spacing:0px;fill:#ffffff;fill-opacity:1;stroke:none;font-family:Sans;opacity:0.69999999999999996"
       x="5.9063249"
       y="3.8704455"
       id="text3221"
       sodipodi:linespacing="125%"><tspan
         sodipodi:role="line"
         id="tspan3223"
         x="5.9063249"
         y="3.8704455"
         style="font-size:8px;opacity:0.69999999999999996;fill:#ffffff">LQFP64</tspan></text>
  </g>
</svg>
