<?xml version="1.0" encoding="UTF-8" standalone="no"?>
<!-- Created with Inkscape (http://www.inkscape.org/) -->

<svg
   xmlns:dc="http://purl.org/dc/elements/1.1/"
   xmlns:cc="http://creativecommons.org/ns#"
   xmlns:rdf="http://www.w3.org/1999/02/22-rdf-syntax-ns#"
   xmlns:svg="http://www.w3.org/2000/svg"
   xmlns="http://www.w3.org/2000/svg"
   xmlns:sodipodi="http://sodipodi.sourceforge.net/DTD/sodipodi-0.dtd"
   xmlns:inkscape="http://www.inkscape.org/namespaces/inkscape"
   width="21.259844"
   height="31.712601"
   viewBox="0 0 21.259843 31.712599"
   id="svg10381"
   version="1.1"
   inkscape:version="0.48.4 r9939"
   sodipodi:docname="SOIC14.svg">
  <title
     id="title11005">SMD Diode</title>
  <defs
     id="defs10383" />
  <sodipodi:namedview
     id="base"
     pagecolor="#ffffff"
     bordercolor="#666666"
     borderopacity="1.0"
     inkscape:pageopacity="0.0"
     inkscape:pageshadow="2"
     inkscape:zoom="15.839192"
     inkscape:cx="18.836794"
     inkscape:cy="15.217071"
     inkscape:document-units="px"
     inkscape:current-layer="layer2"
     showgrid="false"
     fit-margin-top="0"
     fit-margin-left="0"
     fit-margin-right="0"
     fit-margin-bottom="0"
     inkscape:window-width="1366"
     inkscape:window-height="744"
     inkscape:window-x="0"
     inkscape:window-y="24"
     inkscape:window-maximized="1"
     units="mm" />
  <metadata
     id="metadata10386">
    <rdf:RDF>
      <cc:Work
         rdf:about="">
        <dc:format>image/svg+xml</dc:format>
        <dc:type
           rdf:resource="http://purl.org/dc/dcmitype/StillImage" />
        <dc:title>SMD Diode</dc:title>
        <cc:license
           rdf:resource="http://creativecommons.org/publicdomain/zero/1.0/" />
        <dc:creator>
          <cc:Agent>
            <dc:title>Florian &quot;adlerweb&quot; Knodt · www.adlerweb.info</dc:title>
          </cc:Agent>
        </dc:creator>
      </cc:Work>
      <cc:License
         rdf:about="http://creativecommons.org/publicdomain/zero/1.0/">
        <cc:permits
           rdf:resource="http://creativecommons.org/ns#Reproduction" />
        <cc:permits
           rdf:resource="http://creativecommons.org/ns#Distribution" />
        <cc:permits
           rdf:resource="http://creativecommons.org/ns#DerivativeWorks" />
      </cc:License>
    </rdf:RDF>
  </metadata>
  <g
     inkscape:label="Ebene 1"
     inkscape:groupmode="layer"
     id="layer1"
     transform="translate(265.91821,319.08713)"
     style="display:none">
    <g
       transform="translate(-653.35101,-604.95987)"
       id="g10962">
      <rect
         ry="0"
         y="286.65656"
         x="382.20642"
         height="25.702442"
         width="67.700294"
         id="rect10268-4-9"
         style="fill:#9a9a9a;fill-opacity:0.7;fill-rule:nonzero;stroke:none" />
      <rect
         style="fill:#2b2b2b;fill-opacity:0.7;fill-rule:nonzero;stroke:none"
         id="rect10270-7-0"
         width="43.810169"
         height="25.677378"
         x="394.15146"
         y="286.66907"
         ry="0" />
      <rect
         y="286.65573"
         x="429.41965"
         height="25.698103"
         width="8.536272"
         id="rect10349"
         style="fill:#d6d6d6;fill-opacity:0.7;fill-rule:nonzero;stroke:none" />
    </g>
  </g>
  <g
     inkscape:groupmode="layer"
     id="layer2"
     inkscape:label="Layer"
     transform="translate(-5.2263763,3.8090547)">
    <path
       style="opacity:0.69999999999999996;fill:#f9f9f9;fill-opacity:0.69999999999999996;fill-rule:nonzero;stroke:none"
       d="m 26.486219,24.820865 -3.720473,0 0,1.452756 3.720473,0 0,-1.452756 z m -17.539371,0 -3.720472,0 0,1.452756 3.720472,0 0,-1.452756 z"
       id="rect10365-7"
       inkscape:connector-curvature="0" />
    <path
       style="opacity:0.69999999999999996;fill:#f9f9f9;fill-opacity:0.69999999999999996;fill-rule:nonzero;stroke:none"
       d="m 26.486219,-2.1791331 -3.720473,0 0,1.4527559 3.720473,0 0,-1.4527559 z m -17.539371,0 -3.720472,0 0,1.4527559 3.720472,0 0,-1.4527559 z"
       id="rect10365-7-3"
       inkscape:connector-curvature="0" />
    <path
       style="opacity:0.69999999999999996;fill:#f9f9f9;fill-opacity:0.69999999999999996;fill-rule:nonzero;stroke:none"
       d="m 26.486219,2.3208667 -3.720473,0 0,1.452756 3.720473,0 0,-1.452756 z m -17.539371,0 -3.720472,0 0,1.452756 3.720472,0 0,-1.452756 z"
       id="rect10365-7-38"
       inkscape:connector-curvature="0" />
    <path
       style="opacity:0.69999999999999996;fill:#f9f9f9;fill-opacity:0.69999999999999996;fill-rule:nonzero;stroke:none"
       d="m 26.486219,6.8208662 -3.720473,0 0,1.452756 3.720473,0 0,-1.452756 z m -17.539371,0 -3.720472,0 0,1.452756 3.720472,0 0,-1.452756 z"
       id="rect10365-7-2"
       inkscape:connector-curvature="0" />
    <path
       style="opacity:0.69999999999999996;fill:#f9f9f9;fill-opacity:0.69999999999999996;fill-rule:nonzero;stroke:none"
       d="m 26.486219,11.320866 -3.720473,0 0,1.452756 3.720473,0 0,-1.452756 z m -17.539371,0 -3.720472,0 0,1.452756 3.720472,0 0,-1.452756 z"
       id="rect10365-7-1"
       inkscape:connector-curvature="0" />
    <path
       style="opacity:0.69999999999999996;fill:#f9f9f9;fill-opacity:0.69999999999999996;fill-rule:nonzero;stroke:none"
       d="m 26.486219,15.820866 -3.720473,0 0,1.452756 3.720473,0 0,-1.452756 z m -17.539371,0 -3.720472,0 0,1.452756 3.720472,0 0,-1.452756 z"
       id="rect10365-7-9"
       inkscape:connector-curvature="0" />
    <path
       style="opacity:0.69999999999999996;fill:#f9f9f9;fill-opacity:0.69999999999999996;fill-rule:nonzero;stroke:none"
       d="m 26.486219,20.320866 -3.720473,0 0,1.452756 3.720473,0 0,-1.452756 z m -17.539371,0 -3.720472,0 0,1.452756 3.720472,0 0,-1.452756 z"
       id="rect10365-7-6"
       inkscape:connector-curvature="0" />
    <rect
       style="opacity:0.69999999999999996;fill:#000000;fill-opacity:0.69999999999999996;fill-rule:nonzero;stroke:none"
       id="rect10361"
       width="13.818897"
       height="31.712599"
       x="8.9468479"
       y="-3.8090546"
       ry="0" />
    <text
       xml:space="preserve"
       style="font-size:6px;font-style:normal;font-weight:normal;line-height:125%;letter-spacing:0px;word-spacing:0px;fill:#ffffff;fill-opacity:1;stroke:none;font-family:Sans;opacity:0.7"
       x="-2.7476759"
       y="-12.944189"
       id="text3036"
       sodipodi:linespacing="125%"
       transform="matrix(0,1,-1,0,0,0)"><tspan
         sodipodi:role="line"
         id="tspan3038"
         x="-2.7476759"
         y="-12.944189"
         style="font-size:7.99999952000000025px;fill:#ffffff">SOIC14</tspan></text>
  </g>
</svg>
