<?xml version="1.0" encoding="UTF-8" standalone="no"?>
<!-- Created with Inkscape (http://www.inkscape.org/) -->

<svg
   xmlns:dc="http://purl.org/dc/elements/1.1/"
   xmlns:cc="http://creativecommons.org/ns#"
   xmlns:rdf="http://www.w3.org/1999/02/22-rdf-syntax-ns#"
   xmlns:svg="http://www.w3.org/2000/svg"
   xmlns="http://www.w3.org/2000/svg"
   xmlns:sodipodi="http://sodipodi.sourceforge.net/DTD/sodipodi-0.dtd"
   xmlns:inkscape="http://www.inkscape.org/namespaces/inkscape"
   width="22.677166"
   height="18.46063"
   viewBox="0 0 22.677165 18.460631"
   id="svg10381"
   version="1.1"
   inkscape:version="0.48.4 r9939"
   sodipodi:docname="SSOP16.svg">
  <title
     id="title11005">SMD Diode</title>
  <defs
     id="defs10383" />
  <sodipodi:namedview
     id="base"
     pagecolor="#ffffff"
     bordercolor="#666666"
     borderopacity="1.0"
     inkscape:pageopacity="0.0"
     inkscape:pageshadow="2"
     inkscape:zoom="22.4"
     inkscape:cx="12.17414"
     inkscape:cy="10.205956"
     inkscape:document-units="px"
     inkscape:current-layer="layer2"
     showgrid="false"
     fit-margin-top="0"
     fit-margin-left="0"
     fit-margin-right="0"
     fit-margin-bottom="0"
     inkscape:window-width="1366"
     inkscape:window-height="744"
     inkscape:window-x="0"
     inkscape:window-y="24"
     inkscape:window-maximized="1"
     units="mm" />
  <metadata
     id="metadata10386">
    <rdf:RDF>
      <cc:Work
         rdf:about="">
        <dc:format>image/svg+xml</dc:format>
        <dc:type
           rdf:resource="http://purl.org/dc/dcmitype/StillImage" />
        <dc:title>SMD Diode</dc:title>
        <cc:license
           rdf:resource="http://creativecommons.org/publicdomain/zero/1.0/" />
        <dc:creator>
          <cc:Agent>
            <dc:title>Florian &quot;adlerweb&quot; Knodt · www.adlerweb.info</dc:title>
          </cc:Agent>
        </dc:creator>
      </cc:Work>
      <cc:License
         rdf:about="http://creativecommons.org/publicdomain/zero/1.0/">
        <cc:permits
           rdf:resource="http://creativecommons.org/ns#Reproduction" />
        <cc:permits
           rdf:resource="http://creativecommons.org/ns#Distribution" />
        <cc:permits
           rdf:resource="http://creativecommons.org/ns#DerivativeWorks" />
      </cc:License>
    </rdf:RDF>
  </metadata>
  <g
     inkscape:label="Ebene 1"
     inkscape:groupmode="layer"
     id="layer1"
     transform="translate(273.6249,313.54185)"
     style="display:none">
    <g
       transform="translate(-653.35101,-604.95987)"
       id="g10962">
      <rect
         ry="0"
         y="286.65656"
         x="382.20642"
         height="25.702442"
         width="67.700294"
         id="rect10268-4-9"
         style="fill:#9a9a9a;fill-opacity:0.7;fill-rule:nonzero;stroke:none" />
      <rect
         style="fill:#2b2b2b;fill-opacity:0.7;fill-rule:nonzero;stroke:none"
         id="rect10270-7-0"
         width="43.810169"
         height="25.677378"
         x="394.15146"
         y="286.66907"
         ry="0" />
      <rect
         y="286.65573"
         x="429.41965"
         height="25.698103"
         width="8.536272"
         id="rect10349"
         style="fill:#d6d6d6;fill-opacity:0.7;fill-rule:nonzero;stroke:none" />
    </g>
  </g>
  <g
     inkscape:groupmode="layer"
     id="layer2"
     inkscape:label="Layer"
     transform="translate(2.4803148,-1.7362189)">
    <path
       style="opacity:0.69999999999999996;fill:#f9f9f9;fill-opacity:0.69999999999999996;fill-rule:nonzero;stroke:none"
       d="m -2.4803155,18.636072 0,0.78125 3.5296415,0 0,-0.78125 -3.5296415,0 z m 19.1162885,0 0,0.78125 3.560877,0 0,-0.78125 -3.560877,0 z"
       id="rect10365"
       inkscape:connector-curvature="0" />
    <path
       style="opacity:0.69999999999999996;fill:#f9f9f9;fill-opacity:0.69999999999999996;fill-rule:nonzero;stroke:none"
       d="m -2.4803155,16.332923 0,0.78125 3.5296415,0 0,-0.78125 -3.5296415,0 z m 19.1162885,0 0,0.78125 3.560877,0 0,-0.78125 -3.560877,0 z"
       id="rect10365-8"
       inkscape:connector-curvature="0" />
    <path
       style="opacity:0.69999999999999996;fill:#f9f9f9;fill-opacity:0.69999999999999996;fill-rule:nonzero;stroke:none"
       d="m -2.4803155,14.029773 0,0.78125 3.5296415,0 0,-0.78125 -3.5296415,0 z m 19.1162885,0 0,0.78125 3.560877,0 0,-0.78125 -3.560877,0 z"
       id="rect10365-3"
       inkscape:connector-curvature="0" />
    <path
       style="opacity:0.69999999999999996;fill:#f9f9f9;fill-opacity:0.69999999999999996;fill-rule:nonzero;stroke:none"
       d="m -2.4803155,11.726623 0,0.78125 3.5296415,0 0,-0.78125 -3.5296415,0 z m 19.1162885,0 0,0.78125 3.560877,0 0,-0.78125 -3.560877,0 z"
       id="rect10365-4"
       inkscape:connector-curvature="0" />
    <path
       style="opacity:0.69999999999999996;fill:#f9f9f9;fill-opacity:0.69999999999999996;fill-rule:nonzero;stroke:none"
       d="m -2.4803155,9.4234738 0,0.7812502 3.5296415,0 0,-0.7812502 -3.5296415,0 z m 19.1162885,0 0,0.7812502 3.560877,0 0,-0.7812502 -3.560877,0 z"
       id="rect10365-0"
       inkscape:connector-curvature="0" />
    <path
       style="opacity:0.69999999999999996;fill:#f9f9f9;fill-opacity:0.69999999999999996;fill-rule:nonzero;stroke:none"
       d="m -2.4803155,7.1203238 0,0.78125 3.5296415,0 0,-0.78125 -3.5296415,0 z m 19.1162885,0 0,0.78125 3.560877,0 0,-0.78125 -3.560877,0 z"
       id="rect10365-2"
       inkscape:connector-curvature="0" />
    <path
       style="opacity:0.69999999999999996;fill:#f9f9f9;fill-opacity:0.69999999999999996;fill-rule:nonzero;stroke:none"
       d="m -2.4803155,4.8171741 0,0.78125 3.5296415,0 0,-0.78125 -3.5296415,0 z m 19.1162885,0 0,0.78125 3.560877,0 0,-0.78125 -3.560877,0 z"
       id="rect10365-5"
       inkscape:connector-curvature="0" />
    <path
       style="opacity:0.69999999999999996;fill:#f9f9f9;fill-opacity:0.69999999999999996;fill-rule:nonzero;stroke:none"
       d="m -2.4803155,2.5140245 0,0.78125 3.5280338,0 0,-0.78125 -3.5280338,0 z m 19.1075815,0 0,0.78125 3.559255,0 0,-0.78125 -3.559255,0 z"
       id="rect10365-7"
       inkscape:connector-curvature="0" />
    <rect
       style="opacity:0.7;fill:#000000;fill-opacity:0.7;fill-rule:nonzero;stroke:none"
       id="rect10361"
       width="15.590551"
       height="18.46063"
       x="1.0629913"
       y="1.7362189"
       ry="0" />
    <text
       xml:space="preserve"
       style="font-size:6px;font-style:normal;font-weight:normal;line-height:125%;letter-spacing:0px;word-spacing:0px;fill:#ffffff;fill-opacity:1;stroke:none;font-family:Sans;opacity:0.7"
       x="2.482502"
       y="-7.2202063"
       id="text2997"
       sodipodi:linespacing="125%"
       transform="matrix(0,1,-1,0,0,0)"><tspan
         sodipodi:role="line"
         id="tspan2999"
         x="2.482502"
         y="-7.2202063"
         style="font-size:4.50000000000000000px;opacity:0.69999999999999996;fill:#ffffff">SSOP16</tspan></text>
  </g>
</svg>
