<?xml version="1.0" encoding="UTF-8" standalone="no"?>
<!-- Created with Inkscape (http://www.inkscape.org/) -->

<svg
   xmlns:dc="http://purl.org/dc/elements/1.1/"
   xmlns:cc="http://creativecommons.org/ns#"
   xmlns:rdf="http://www.w3.org/1999/02/22-rdf-syntax-ns#"
   xmlns:svg="http://www.w3.org/2000/svg"
   xmlns="http://www.w3.org/2000/svg"
   xmlns:sodipodi="http://sodipodi.sourceforge.net/DTD/sodipodi-0.dtd"
   xmlns:inkscape="http://www.inkscape.org/namespaces/inkscape"
   width="28.137451"
   height="67.960625"
   viewBox="0 0 28.13745 67.960622"
   id="svg10381"
   version="1.1"
   inkscape:version="0.48.4 r9939"
   sodipodi:docname="DIP16.svg">
  <title
     id="title11005">SMD Diode</title>
  <defs
     id="defs10383" />
  <sodipodi:namedview
     id="base"
     pagecolor="#ffffff"
     bordercolor="#666666"
     borderopacity="1.0"
     inkscape:pageopacity="0.0"
     inkscape:pageshadow="2"
     inkscape:zoom="7.919596"
     inkscape:cx="37.378986"
     inkscape:cy="32.962207"
     inkscape:document-units="px"
     inkscape:current-layer="layer2"
     showgrid="false"
     fit-margin-top="0"
     fit-margin-left="0"
     fit-margin-right="0"
     fit-margin-bottom="0"
     inkscape:window-width="1366"
     inkscape:window-height="744"
     inkscape:window-x="0"
     inkscape:window-y="24"
     inkscape:window-maximized="1"
     units="mm" />
  <metadata
     id="metadata10386">
    <rdf:RDF>
      <cc:Work
         rdf:about="">
        <dc:format>image/svg+xml</dc:format>
        <dc:type
           rdf:resource="http://purl.org/dc/dcmitype/StillImage" />
        <dc:title>SMD Diode</dc:title>
        <cc:license
           rdf:resource="http://creativecommons.org/publicdomain/zero/1.0/" />
        <dc:creator>
          <cc:Agent>
            <dc:title>Florian &quot;adlerweb&quot; Knodt · www.adlerweb.info</dc:title>
          </cc:Agent>
        </dc:creator>
      </cc:Work>
      <cc:License
         rdf:about="http://creativecommons.org/publicdomain/zero/1.0/">
        <cc:permits
           rdf:resource="http://creativecommons.org/ns#Reproduction" />
        <cc:permits
           rdf:resource="http://creativecommons.org/ns#Distribution" />
        <cc:permits
           rdf:resource="http://creativecommons.org/ns#DerivativeWorks" />
      </cc:License>
    </rdf:RDF>
  </metadata>
  <g
     inkscape:label="Ebene 1"
     inkscape:groupmode="layer"
     id="layer1"
     transform="translate(251.233,340.66472)"
     style="display:none">
    <g
       transform="translate(-653.35101,-604.95987)"
       id="g10962">
      <rect
         ry="0"
         y="286.65656"
         x="382.20642"
         height="25.702442"
         width="67.700294"
         id="rect10268-4-9"
         style="fill:#9a9a9a;fill-opacity:0.7;fill-rule:nonzero;stroke:none" />
      <rect
         style="fill:#2b2b2b;fill-opacity:0.7;fill-rule:nonzero;stroke:none"
         id="rect10270-7-0"
         width="43.810169"
         height="25.677378"
         x="394.15146"
         y="286.66907"
         ry="0" />
      <rect
         y="286.65573"
         x="429.41965"
         height="25.698103"
         width="8.536272"
         id="rect10349"
         style="fill:#d6d6d6;fill-opacity:0.7;fill-rule:nonzero;stroke:none" />
    </g>
  </g>
  <g
     inkscape:groupmode="layer"
     id="layer2"
     inkscape:label="Layer"
     transform="translate(-19.911586,25.386635)">
    <path
       style="opacity:0.69999999999999996;fill:#f9f9f9;fill-opacity:0.69999999999999996;fill-rule:nonzero;stroke:none"
       d="m 48.036585,-15.926004 -2.34375,0 0,4.03937 2.34375,0 0,-4.03937 z m -25.75,0 -2.375,0 0,4.03937 2.375,0 0,-4.03937 z"
       id="rect10365-7-5"
       inkscape:connector-curvature="0" />
    <rect
       style="opacity:0.69999999999999996;fill:#000000;fill-opacity:0.69999999999999996;fill-rule:nonzero;stroke:none"
       id="rect10361"
       width="23.4"
       height="67.960625"
       x="22.295935"
       y="-25.386635"
       ry="0" />
    <path
       inkscape:connector-curvature="0"
       style="opacity:0.69999999999999996;fill:#f9f9f9;fill-opacity:0.69999999999999996;fill-rule:nonzero;stroke:none"
       d="m 48.049035,-24.394508 -2.34375,0 0,3.507874 2.34375,0 0,-3.507874 z m -25.749999,0 -2.375,0 0,3.507874 2.375,0 0,-3.507874 z"
       id="rect10365-7-5-6" />
    <path
       inkscape:connector-curvature="0"
       style="opacity:0.69999999999999996;fill:#f9f9f9;fill-opacity:0.69999999999999996;fill-rule:nonzero;stroke:none"
       d="m 48.036583,38.073993 -2.34375,0 0,3.507874 2.34375,0 0,-3.507874 z m -25.749998,0 -2.375,0 0,3.507874 2.375,0 0,-3.507874 z"
       id="rect10365-7-5-6-9" />
    <path
       style="opacity:0.69999999999999996;fill:#f9f9f9;fill-opacity:0.69999999999999996;fill-rule:nonzero;stroke:none"
       d="m 48.036585,-6.926005 -2.34375,0 0,4.039371 2.34375,0 0,-4.039371 z m -25.749999,0 -2.375,0 0,4.039371 2.375,0 0,-4.039371 z"
       id="rect10365-7-5-4"
       inkscape:connector-curvature="0" />
    <path
       style="opacity:0.69999999999999996;fill:#f9f9f9;fill-opacity:0.69999999999999996;fill-rule:nonzero;stroke:none"
       d="m 48.036585,2.073995 -2.34375,0 0,4.03937 2.34375,0 0,-4.03937 z m -25.749999,0 -2.375,0 0,4.03937 2.375,0 0,-4.03937 z"
       id="rect10365-7-5-3"
       inkscape:connector-curvature="0" />
    <path
       style="opacity:0.69999999999999996;fill:#f9f9f9;fill-opacity:0.69999999999999996;fill-rule:nonzero;stroke:none"
       d="m 48.036585,11.073994 -2.34375,0 0,4.03937 2.34375,0 0,-4.03937 z m -25.749998,0 -2.375,0 0,4.03937 2.375,0 0,-4.03937 z"
       id="rect10365-7-5-3-8"
       inkscape:connector-curvature="0" />
    <path
       style="opacity:0.69999999999999996;fill:#f9f9f9;fill-opacity:0.69999999999999996;fill-rule:nonzero;stroke:none"
       d="m 48.036585,20.073994 -2.34375,0 0,4.03937 2.34375,0 0,-4.03937 z m -25.749997,0 -2.375,0 0,4.03937 2.375,0 0,-4.03937 z"
       id="rect10365-7-5-3-8-6"
       inkscape:connector-curvature="0" />
    <path
       style="opacity:0.69999999999999996;fill:#f9f9f9;fill-opacity:0.69999999999999996;fill-rule:nonzero;stroke:none"
       d="m 48.036585,29.073994 -2.34375,0 0,4.03937 2.34375,0 0,-4.03937 z m -25.749997,0 -2.375,0 0,4.03937 2.375,0 0,-4.03937 z"
       id="rect10365-7-5-3-8-2"
       inkscape:connector-curvature="0" />
    <text
       xml:space="preserve"
       style="font-size:10px;font-style:normal;font-weight:normal;line-height:125%;letter-spacing:0px;word-spacing:0px;fill:#ffffff;fill-opacity:1;stroke:none;font-family:Sans"
       x="-12.238841"
       y="-28.884119"
       id="text2997"
       sodipodi:linespacing="125%"
       transform="matrix(0,1,-1,0,0,0)"><tspan
         sodipodi:role="line"
         id="tspan2999"
         x="-12.238841"
         y="-28.884119"
         style="font-size:13.99999905px;opacity:0.7;fill:#ffffff">DIP16</tspan></text>
  </g>
</svg>
