<?xml version="1.0" encoding="UTF-8" standalone="no"?>
<!-- Created with Inkscape (http://www.inkscape.org/) -->

<svg
   xmlns:dc="http://purl.org/dc/elements/1.1/"
   xmlns:cc="http://creativecommons.org/ns#"
   xmlns:rdf="http://www.w3.org/1999/02/22-rdf-syntax-ns#"
   xmlns:svg="http://www.w3.org/2000/svg"
   xmlns="http://www.w3.org/2000/svg"
   xmlns:sodipodi="http://sodipodi.sourceforge.net/DTD/sodipodi-0.dtd"
   xmlns:inkscape="http://www.inkscape.org/namespaces/inkscape"
   width="28.125002"
   height="67.949997"
   viewBox="0 0 28.125 67.949994"
   id="svg10381"
   version="1.1"
   inkscape:version="0.48.4 r9939"
   sodipodi:docname="DIP14.svg">
  <title
     id="title11005">SMD Diode</title>
  <defs
     id="defs10383" />
  <sodipodi:namedview
     id="base"
     pagecolor="#ffffff"
     bordercolor="#666666"
     borderopacity="1.0"
     inkscape:pageopacity="0.0"
     inkscape:pageshadow="2"
     inkscape:zoom="7.919596"
     inkscape:cx="41.700118"
     inkscape:cy="31.671898"
     inkscape:document-units="px"
     inkscape:current-layer="layer2"
     showgrid="false"
     fit-margin-top="0"
     fit-margin-left="0"
     fit-margin-right="0"
     fit-margin-bottom="0"
     inkscape:window-width="1366"
     inkscape:window-height="744"
     inkscape:window-x="0"
     inkscape:window-y="24"
     inkscape:window-maximized="1"
     units="mm" />
  <metadata
     id="metadata10386">
    <rdf:RDF>
      <cc:Work
         rdf:about="">
        <dc:format>image/svg+xml</dc:format>
        <dc:type
           rdf:resource="http://purl.org/dc/dcmitype/StillImage" />
        <dc:title>SMD Diode</dc:title>
        <cc:license
           rdf:resource="http://creativecommons.org/publicdomain/zero/1.0/" />
        <dc:creator>
          <cc:Agent>
            <dc:title>Florian &quot;adlerweb&quot; Knodt · www.adlerweb.info</dc:title>
          </cc:Agent>
        </dc:creator>
      </cc:Work>
      <cc:License
         rdf:about="http://creativecommons.org/publicdomain/zero/1.0/">
        <cc:permits
           rdf:resource="http://creativecommons.org/ns#Reproduction" />
        <cc:permits
           rdf:resource="http://creativecommons.org/ns#Distribution" />
        <cc:permits
           rdf:resource="http://creativecommons.org/ns#DerivativeWorks" />
      </cc:License>
    </rdf:RDF>
  </metadata>
  <g
     inkscape:label="Ebene 1"
     inkscape:groupmode="layer"
     id="layer1"
     transform="translate(251.23209,340.66563)"
     style="display:none">
    <g
       transform="translate(-653.35101,-604.95987)"
       id="g10962">
      <rect
         ry="0"
         y="286.65656"
         x="382.20642"
         height="25.702442"
         width="67.700294"
         id="rect10268-4-9"
         style="fill:#9a9a9a;fill-opacity:0.7;fill-rule:nonzero;stroke:none" />
      <rect
         style="fill:#2b2b2b;fill-opacity:0.7;fill-rule:nonzero;stroke:none"
         id="rect10270-7-0"
         width="43.810169"
         height="25.677378"
         x="394.15146"
         y="286.66907"
         ry="0" />
      <rect
         y="286.65573"
         x="429.41965"
         height="25.698103"
         width="8.536272"
         id="rect10349"
         style="fill:#d6d6d6;fill-opacity:0.7;fill-rule:nonzero;stroke:none" />
    </g>
  </g>
  <g
     inkscape:groupmode="layer"
     id="layer2"
     inkscape:label="Layer"
     transform="translate(-19.912496,25.387547)">
    <path
       inkscape:connector-curvature="0"
       style="opacity:0.69999999999999996;fill:#f9f9f9;fill-opacity:0.69999999999999996;fill-rule:nonzero;stroke:none"
       d="m 48.037495,-21.012545 -2.34375,0 0,5.1875 2.34375,0 0,-5.1875 z m -25.75,0 -2.375,0 0,5.1875 2.375,0 0,-5.1875 z"
       id="rect10365-7-5" />
    <rect
       style="opacity:0.69999999999999996;fill:#000000;fill-opacity:0.69999999999999996;fill-rule:nonzero;stroke:none"
       id="rect10361"
       width="23.4"
       height="67.949997"
       x="22.284395"
       y="-25.387547"
       ry="0" />
    <path
       inkscape:connector-curvature="0"
       style="opacity:0.69999999999999996;fill:#f9f9f9;fill-opacity:0.69999999999999996;fill-rule:nonzero;stroke:none"
       d="m 48.037495,32.999066 -2.34375,0 0,5.1875 2.34375,0 0,-5.1875 z m -25.749999,0 -2.375,0 0,5.1875 2.375,0 0,-5.1875 z"
       id="rect10365-7-5-9" />
    <path
       inkscape:connector-curvature="0"
       style="opacity:0.69999999999999996;fill:#f9f9f9;fill-opacity:0.69999999999999996;fill-rule:nonzero;stroke:none"
       d="m 48.037495,23.999067 -2.34375,0 0,5.187499 2.34375,0 0,-5.187499 z m -25.749999,0 -2.375,0 0,5.187499 2.375,0 0,-5.187499 z"
       id="rect10365-7-5-95" />
    <path
       inkscape:connector-curvature="0"
       style="opacity:0.69999999999999996;fill:#f9f9f9;fill-opacity:0.69999999999999996;fill-rule:nonzero;stroke:none"
       d="m 48.037495,14.999067 -2.34375,0 0,5.1875 2.34375,0 0,-5.1875 z m -25.749999,0 -2.375,0 0,5.1875 2.375,0 0,-5.1875 z"
       id="rect10365-7-5-2" />
    <path
       inkscape:connector-curvature="0"
       style="opacity:0.69999999999999996;fill:#f9f9f9;fill-opacity:0.69999999999999996;fill-rule:nonzero;stroke:none"
       d="m 48.037495,5.999067 -2.34375,0 0,5.1875 2.34375,0 0,-5.1875 z m -25.749999,0 -2.375,0 0,5.1875 2.375,0 0,-5.1875 z"
       id="rect10365-7-5-8" />
    <path
       inkscape:connector-curvature="0"
       style="opacity:0.69999999999999996;fill:#f9f9f9;fill-opacity:0.69999999999999996;fill-rule:nonzero;stroke:none"
       d="m 48.037495,-3.000932 -2.34375,0 0,5.1875 2.34375,0 0,-5.1875 z m -25.749999,0 -2.375,0 0,5.1875 2.375,0 0,-5.1875 z"
       id="rect10365-7-5-97" />
    <path
       inkscape:connector-curvature="0"
       style="opacity:0.69999999999999996;fill:#f9f9f9;fill-opacity:0.69999999999999996;fill-rule:nonzero;stroke:none"
       d="m 48.037495,-12.000932 -2.34375,0 0,5.1875 2.34375,0 0,-5.1875 z m -25.749999,0 -2.375,0 0,5.1875 2.375,0 0,-5.1875 z"
       id="rect10365-7-5-3" />
    <text
       xml:space="preserve"
       style="font-size:40px;font-style:normal;font-weight:normal;line-height:125%;letter-spacing:0px;word-spacing:0px;opacity:0.69999999999999996;fill:#f9f9f9;fill-opacity:1;stroke:none;font-family:Sans"
       x="-6.3271003"
       y="-30.339376"
       id="text2996"
       sodipodi:linespacing="125%"
       transform="matrix(0,1,-1,0,0,0)"><tspan
         sodipodi:role="line"
         id="tspan2998"
         x="-6.3271003"
         y="-30.339376"
         style="font-size:10px;font-style:normal;font-variant:normal;font-weight:normal;font-stretch:normal;text-align:start;text-anchor:start;fill:#f9f9f9;font-family:Sans;-inkscape-font-specification:Sans">DIP14</tspan></text>
  </g>
</svg>
