<?xml version="1.0" encoding="UTF-8" standalone="no"?>
<!-- Created with Inkscape (http://www.inkscape.org/) -->

<svg
   xmlns:dc="http://purl.org/dc/elements/1.1/"
   xmlns:cc="http://creativecommons.org/ns#"
   xmlns:rdf="http://www.w3.org/1999/02/22-rdf-syntax-ns#"
   xmlns:svg="http://www.w3.org/2000/svg"
   xmlns="http://www.w3.org/2000/svg"
   xmlns:sodipodi="http://sodipodi.sourceforge.net/DTD/sodipodi-0.dtd"
   xmlns:inkscape="http://www.inkscape.org/namespaces/inkscape"
   width="77.952759"
   height="77.952759"
   viewBox="0 0 77.952753 77.952753"
   id="svg10381"
   version="1.1"
   inkscape:version="0.48.4 r9939"
   sodipodi:docname="LQFP144.svg">
  <title
     id="title11005">SMD Diode</title>
  <defs
     id="defs10383" />
  <sodipodi:namedview
     id="base"
     pagecolor="#ffffff"
     bordercolor="#666666"
     borderopacity="1.0"
     inkscape:pageopacity="0.0"
     inkscape:pageshadow="2"
     inkscape:zoom="5.6"
     inkscape:cx="61.651318"
     inkscape:cy="44.542968"
     inkscape:document-units="px"
     inkscape:current-layer="layer2"
     showgrid="false"
     fit-margin-top="0"
     fit-margin-left="0"
     fit-margin-right="0"
     fit-margin-bottom="0"
     inkscape:window-width="1366"
     inkscape:window-height="744"
     inkscape:window-x="0"
     inkscape:window-y="24"
     inkscape:window-maximized="1"
     units="mm" />
  <metadata
     id="metadata10386">
    <rdf:RDF>
      <cc:Work
         rdf:about="">
        <dc:format>image/svg+xml</dc:format>
        <dc:type
           rdf:resource="http://purl.org/dc/dcmitype/StillImage" />
        <dc:title>SMD Diode</dc:title>
        <cc:license
           rdf:resource="http://creativecommons.org/publicdomain/zero/1.0/" />
        <dc:creator>
          <cc:Agent>
            <dc:title>Florian &quot;adlerweb&quot; Knodt · www.adlerweb.info</dc:title>
          </cc:Agent>
        </dc:creator>
      </cc:Work>
      <cc:License
         rdf:about="http://creativecommons.org/publicdomain/zero/1.0/">
        <cc:permits
           rdf:resource="http://creativecommons.org/ns#Reproduction" />
        <cc:permits
           rdf:resource="http://creativecommons.org/ns#Distribution" />
        <cc:permits
           rdf:resource="http://creativecommons.org/ns#DerivativeWorks" />
      </cc:License>
    </rdf:RDF>
  </metadata>
  <g
     inkscape:label="Ebene 1"
     inkscape:groupmode="layer"
     id="layer1"
     transform="translate(221.5383,420.15998)"
     style="display:none">
    <g
       transform="translate(-653.35101,-604.95987)"
       id="g10962">
      <rect
         ry="0"
         y="286.65656"
         x="382.20642"
         height="25.702442"
         width="67.700294"
         id="rect10268-4-9"
         style="fill:#9a9a9a;fill-opacity:0.7;fill-rule:nonzero;stroke:none" />
      <rect
         style="fill:#2b2b2b;fill-opacity:0.7;fill-rule:nonzero;stroke:none"
         id="rect10270-7-0"
         width="43.810169"
         height="25.677378"
         x="394.15146"
         y="286.66907"
         ry="0" />
      <rect
         y="286.65573"
         x="429.41965"
         height="25.698103"
         width="8.536272"
         id="rect10349"
         style="fill:#d6d6d6;fill-opacity:0.7;fill-rule:nonzero;stroke:none" />
    </g>
  </g>
  <g
     inkscape:groupmode="layer"
     id="layer2"
     inkscape:label="Layer"
     transform="translate(-49.606289,104.88189)">
    <rect
       style="color:#000000;fill:#000000;fill-opacity:0.69999999999999996;fill-rule:nonzero;stroke:none;stroke-width:0.99999994000000003;marker:none;visibility:visible;display:inline;overflow:visible;enable-background:accumulate;opacity:0.69999999999999996"
       id="rect10361"
       width="70.866135"
       height="70.866135"
       x="30.472448"
       y="53.149597"
       ry="0"
       transform="matrix(0,-1,1,0,0,0)" />
    <path
       style="fill:#ffffff;fill-opacity:1;fill-rule:nonzero;stroke:none;opacity:0.7"
       d="m 57.188966,-104.88189 0,3.49967 0.779527,0 0,-3.49967 -0.779527,0 z m 0,74.453084 0,3.499667 0.779527,0 0,-3.499667 -0.779527,0 z"
       id="rect10365-7"
       inkscape:connector-curvature="0" />
    <path
       style="fill:#ffffff;fill-opacity:1;fill-rule:nonzero;stroke:none;opacity:0.7"
       d="m 119.19684,-104.88189 0,3.49967 0.77952,0 0,-3.49967 -0.77952,0 z m 0,74.45308 0,3.499667 0.77952,0 0,-3.499667 -0.77952,0 z"
       id="rect10365-7-1"
       inkscape:connector-curvature="0" />
    <path
       style="fill:#ffffff;fill-opacity:1;fill-rule:nonzero;stroke:none;opacity:0.7"
       d="m 115.65353,-104.88189 0,3.49967 0.77953,0 0,-3.49967 -0.77953,0 z m 0,74.45308 0,3.499667 0.77953,0 0,-3.499667 -0.77953,0 z"
       id="rect10365-7-8"
       inkscape:connector-curvature="0" />
    <path
       style="fill:#ffffff;fill-opacity:1;fill-rule:nonzero;stroke:none;opacity:0.7"
       d="m 112.11022,-104.88189 0,3.49967 0.77953,0 0,-3.49967 -0.77953,0 z m 0,74.45308 0,3.499667 0.77953,0 0,-3.499667 -0.77953,0 z"
       id="rect10365-7-84"
       inkscape:connector-curvature="0" />
    <path
       style="fill:#ffffff;fill-opacity:1;fill-rule:nonzero;stroke:none;opacity:0.7"
       d="m 108.56692,-104.88189 0,3.49967 0.77952,0 0,-3.49967 -0.77952,0 z m 0,74.45308 0,3.499667 0.77952,0 0,-3.499667 -0.77952,0 z"
       id="rect10365-7-80"
       inkscape:connector-curvature="0" />
    <path
       style="fill:#ffffff;fill-opacity:1;fill-rule:nonzero;stroke:none;opacity:0.7"
       d="m 105.02361,-104.88189 0,3.49967 0.77953,0 0,-3.49967 -0.77953,0 z m 0,74.45308 0,3.499667 0.77953,0 0,-3.499667 -0.77953,0 z"
       id="rect10365-7-7"
       inkscape:connector-curvature="0" />
    <path
       style="fill:#ffffff;fill-opacity:1;fill-rule:nonzero;stroke:none;opacity:0.7"
       d="m 101.4803,-104.88189 0,3.49967 0.77953,0 0,-3.49967 -0.77953,0 z m 0,74.45308 0,3.499667 0.77953,0 0,-3.499667 -0.77953,0 z"
       id="rect10365-7-9"
       inkscape:connector-curvature="0" />
    <path
       style="fill:#ffffff;fill-opacity:1;fill-rule:nonzero;stroke:none;opacity:0.7"
       d="m 97.936995,-104.88189 0,3.49967 0.779527,0 0,-3.49967 -0.779527,0 z m 0,74.45308 0,3.499667 0.779527,0 0,-3.499667 -0.779527,0 z"
       id="rect10365-7-89"
       inkscape:connector-curvature="0" />
    <path
       style="fill:#ffffff;fill-opacity:1;fill-rule:nonzero;stroke:none;opacity:0.7"
       d="m 94.393688,-104.88189 0,3.49967 0.779528,0 0,-3.49967 -0.779528,0 z m 0,74.45308 0,3.499667 0.779528,0 0,-3.499667 -0.779528,0 z"
       id="rect10365-7-6"
       inkscape:connector-curvature="0" />
    <path
       style="fill:#ffffff;fill-opacity:1;fill-rule:nonzero;stroke:none;opacity:0.7"
       d="m 90.850381,-104.88189 0,3.49967 0.779528,0 0,-3.49967 -0.779528,0 z m 0,74.45308 0,3.499667 0.779528,0 0,-3.499667 -0.779528,0 z"
       id="rect10365-7-77"
       inkscape:connector-curvature="0" />
    <path
       style="fill:#ffffff;fill-opacity:1;fill-rule:nonzero;stroke:none;opacity:0.7"
       d="m 87.307074,-104.88189 0,3.49967 0.779528,0 0,-3.49967 -0.779528,0 z m 0,74.45308 0,3.499667 0.779528,0 0,-3.499667 -0.779528,0 z"
       id="rect10365-7-2"
       inkscape:connector-curvature="0" />
    <path
       style="fill:#ffffff;fill-opacity:1;fill-rule:nonzero;stroke:none;opacity:0.7"
       d="m 83.763767,-104.88189 0,3.49967 0.779528,0 0,-3.49967 -0.779528,0 z m 0,74.45308 0,3.499667 0.779528,0 0,-3.499667 -0.779528,0 z"
       id="rect10365-7-3"
       inkscape:connector-curvature="0" />
    <path
       style="fill:#ffffff;fill-opacity:1;fill-rule:nonzero;stroke:none;opacity:0.7"
       d="m 80.220461,-104.88189 0,3.49967 0.779527,0 0,-3.49967 -0.779527,0 z m 0,74.45308 0,3.499667 0.779527,0 0,-3.499667 -0.779527,0 z"
       id="rect10365-7-37"
       inkscape:connector-curvature="0" />
    <path
       style="fill:#ffffff;fill-opacity:1;fill-rule:nonzero;stroke:none;opacity:0.7"
       d="m 73.133847,-104.88189 0,3.49967 0.779527,0 0,-3.49967 -0.779527,0 z m 0,74.45308 0,3.499667 0.779527,0 0,-3.499667 -0.779527,0 z"
       id="rect10365-7-0"
       inkscape:connector-curvature="0" />
    <path
       style="fill:#ffffff;fill-opacity:1;fill-rule:nonzero;stroke:none;opacity:0.7"
       d="m 76.677154,-104.88189 0,3.49967 0.779527,0 0,-3.49967 -0.779527,0 z m 0,74.45308 0,3.499667 0.779527,0 0,-3.499667 -0.779527,0 z"
       id="rect10365-7-4"
       inkscape:connector-curvature="0" />
    <path
       style="fill:#ffffff;fill-opacity:1;fill-rule:nonzero;stroke:none;opacity:0.7"
       d="m 69.59054,-104.88189 0,3.49967 0.779527,0 0,-3.49967 -0.779527,0 z m 0,74.45308 0,3.499667 0.779527,0 0,-3.499667 -0.779527,0 z"
       id="rect10365-7-86"
       inkscape:connector-curvature="0" />
    <path
       style="fill:#ffffff;fill-opacity:1;fill-rule:nonzero;stroke:none;opacity:0.7"
       d="m 66.047233,-104.88189 0,3.49967 0.779527,0 0,-3.49967 -0.779527,0 z m 0,74.45308 0,3.499667 0.779527,0 0,-3.499667 -0.779527,0 z"
       id="rect10365-7-07"
       inkscape:connector-curvature="0" />
    <path
       style="fill:#ffffff;fill-opacity:1;fill-rule:nonzero;stroke:none;opacity:0.7"
       d="m 62.503926,-104.88189 0,3.49967 0.779528,0 0,-3.49967 -0.779528,0 z m 0,74.45308 0,3.499667 0.779528,0 0,-3.499667 -0.779528,0 z"
       id="rect10365-7-64"
       inkscape:connector-curvature="0" />
    <path
       style="fill:#ffffff;fill-opacity:1;fill-rule:nonzero;stroke:none;opacity:0.7"
       d="m 117.42518,-104.88189 0,3.49967 0.77953,0 0,-3.49967 -0.77953,0 z m 0,74.45308 0,3.499667 0.77953,0 0,-3.499667 -0.77953,0 z"
       id="rect10365-7-648"
       inkscape:connector-curvature="0" />
    <path
       style="fill:#ffffff;fill-opacity:1;fill-rule:nonzero;stroke:none;opacity:0.7"
       d="m 113.88188,-104.88189 0,3.49967 0.77952,0 0,-3.49967 -0.77952,0 z m 0,74.45308 0,3.499667 0.77952,0 0,-3.499667 -0.77952,0 z"
       id="rect10365-7-40"
       inkscape:connector-curvature="0" />
    <path
       style="fill:#ffffff;fill-opacity:1;fill-rule:nonzero;stroke:none;opacity:0.7"
       d="m 110.33857,-104.88189 0,3.49967 0.77953,0 0,-3.49967 -0.77953,0 z m 0,74.45308 0,3.499667 0.77953,0 0,-3.499667 -0.77953,0 z"
       id="rect10365-7-96"
       inkscape:connector-curvature="0" />
    <path
       style="fill:#ffffff;fill-opacity:1;fill-rule:nonzero;stroke:none;opacity:0.7"
       d="m 106.79526,-104.88189 0,3.49967 0.77953,0 0,-3.49967 -0.77953,0 z m 0,74.45308 0,3.499667 0.77953,0 0,-3.499667 -0.77953,0 z"
       id="rect10365-7-97"
       inkscape:connector-curvature="0" />
    <path
       style="fill:#ffffff;fill-opacity:1;fill-rule:nonzero;stroke:none;opacity:0.7"
       d="m 103.25196,-104.88189 0,3.49967 0.77952,0 0,-3.49967 -0.77952,0 z m 0,74.45308 0,3.499667 0.77952,0 0,-3.499667 -0.77952,0 z"
       id="rect10365-7-27"
       inkscape:connector-curvature="0" />
    <path
       style="fill:#ffffff;fill-opacity:1;fill-rule:nonzero;stroke:none;opacity:0.7"
       d="m 99.708649,-104.88189 0,3.49967 0.779531,0 0,-3.49967 -0.779531,0 z m 0,74.45308 0,3.499667 0.779531,0 0,-3.499667 -0.779531,0 z"
       id="rect10365-7-71"
       inkscape:connector-curvature="0" />
    <path
       style="fill:#ffffff;fill-opacity:1;fill-rule:nonzero;stroke:none;opacity:0.7"
       d="m 96.165342,-104.88189 0,3.49967 0.779527,0 0,-3.49967 -0.779527,0 z m 0,74.45308 0,3.499667 0.779527,0 0,-3.499667 -0.779527,0 z"
       id="rect10365-7-861"
       inkscape:connector-curvature="0" />
    <path
       style="fill:#ffffff;fill-opacity:1;fill-rule:nonzero;stroke:none;opacity:0.7"
       d="m 92.622035,-104.88189 0,3.49967 0.779527,0 0,-3.49967 -0.779527,0 z m 0,74.45308 0,3.499667 0.779527,0 0,-3.499667 -0.779527,0 z"
       id="rect10365-7-65"
       inkscape:connector-curvature="0" />
    <path
       style="fill:#ffffff;fill-opacity:1;fill-rule:nonzero;stroke:none;opacity:0.7"
       d="m 89.078728,-104.88189 0,3.49967 0.779527,0 0,-3.49967 -0.779527,0 z m 0,74.45308 0,3.499667 0.779527,0 0,-3.499667 -0.779527,0 z"
       id="rect10365-7-898"
       inkscape:connector-curvature="0" />
    <path
       style="fill:#ffffff;fill-opacity:1;fill-rule:nonzero;stroke:none;opacity:0.7"
       d="m 85.535421,-104.88189 0,3.49967 0.779527,0 0,-3.49967 -0.779527,0 z m 0,74.45308 0,3.499667 0.779527,0 0,-3.499667 -0.779527,0 z"
       id="rect10365-7-38"
       inkscape:connector-curvature="0" />
    <path
       style="fill:#ffffff;fill-opacity:1;fill-rule:nonzero;stroke:none;opacity:0.7"
       d="m 81.992114,-104.88189 0,3.49967 0.779527,0 0,-3.49967 -0.779527,0 z m 0,74.45308 0,3.499667 0.779527,0 0,-3.499667 -0.779527,0 z"
       id="rect10365-7-17"
       inkscape:connector-curvature="0" />
    <path
       style="fill:#ffffff;fill-opacity:1;fill-rule:nonzero;stroke:none;opacity:0.7"
       d="m 78.448807,-104.88189 0,3.49967 0.779528,0 0,-3.49967 -0.779528,0 z m 0,74.45308 0,3.499667 0.779528,0 0,-3.499667 -0.779528,0 z"
       id="rect10365-7-67"
       inkscape:connector-curvature="0" />
    <path
       style="fill:#ffffff;fill-opacity:1;fill-rule:nonzero;stroke:none;opacity:0.7"
       d="m 74.9055,-104.88189 0,3.49967 0.779528,0 0,-3.49967 -0.779528,0 z m 0,74.45308 0,3.499667 0.779528,0 0,-3.499667 -0.779528,0 z"
       id="rect10365-7-05"
       inkscape:connector-curvature="0" />
    <path
       style="fill:#ffffff;fill-opacity:1;fill-rule:nonzero;stroke:none;opacity:0.7"
       d="m 71.362193,-104.88189 0,3.49967 0.779528,0 0,-3.49967 -0.779528,0 z m 0,74.45308 0,3.499667 0.779528,0 0,-3.499667 -0.779528,0 z"
       id="rect10365-7-5"
       inkscape:connector-curvature="0" />
    <path
       style="fill:#ffffff;fill-opacity:1;fill-rule:nonzero;stroke:none;opacity:0.7"
       d="m 67.818886,-104.88189 0,3.49967 0.779528,0 0,-3.49967 -0.779528,0 z m 0,74.45308 0,3.499667 0.779528,0 0,-3.499667 -0.779528,0 z"
       id="rect10365-7-61"
       inkscape:connector-curvature="0" />
    <path
       style="fill:#ffffff;fill-opacity:1;fill-rule:nonzero;stroke:none;opacity:0.7"
       d="m 64.27558,-104.88189 0,3.49967 0.779527,0 0,-3.49967 -0.779527,0 z m 0,74.45308 0,3.499667 0.779527,0 0,-3.499667 -0.779527,0 z"
       id="rect10365-7-04"
       inkscape:connector-curvature="0" />
    <path
       style="fill:#ffffff;fill-opacity:1;fill-rule:nonzero;stroke:none;opacity:0.7"
       d="m 60.732273,-104.88189 0,3.49967 0.779527,0 0,-3.49967 -0.779527,0 z m 0,74.45308 0,3.499667 0.779527,0 0,-3.499667 -0.779527,0 z"
       id="rect10365-7-82"
       inkscape:connector-curvature="0" />
    <path
       style="fill:#ffffff;fill-opacity:1;fill-rule:nonzero;stroke:none;opacity:0.7"
       d="m 58.960619,-104.88189 0,3.49967 0.779528,0 0,-3.49967 -0.779528,0 z m 0,74.45308 0,3.499667 0.779528,0 0,-3.499667 -0.779528,0 z"
       id="rect10365-7-66"
       inkscape:connector-curvature="0" />
    <path
       style="opacity:0.7;fill:#ffffff;fill-opacity:0.69999999999999996;fill-rule:nonzero;stroke:none"
       d="m 127.55904,-97.299214 -3.49967,0 0,0.779527 3.49967,0 0,-0.779527 z m -74.453084,0 -3.499667,0 0,0.779527 3.499667,0 0,-0.779527 z"
       id="rect10365-7-381"
       inkscape:connector-curvature="0" />
    <path
       style="opacity:0.7;fill:#ffffff;fill-opacity:0.69999999999999996;fill-rule:nonzero;stroke:none"
       d="m 127.55904,-35.291344 -3.49967,0 0,0.779528 3.49967,0 0,-0.779528 z m -74.45308,0 -3.499667,0 0,0.779528 3.499667,0 0,-0.779528 z"
       id="rect10365-7-1-3"
       inkscape:connector-curvature="0" />
    <path
       style="opacity:0.7;fill:#ffffff;fill-opacity:0.69999999999999996;fill-rule:nonzero;stroke:none"
       d="m 127.55904,-38.83465 -3.49967,0 0,0.779527 3.49967,0 0,-0.779527 z m -74.45308,0 -3.499667,0 0,0.779527 3.499667,0 0,-0.779527 z"
       id="rect10365-7-8-0"
       inkscape:connector-curvature="0" />
    <path
       style="opacity:0.7;fill:#ffffff;fill-opacity:0.69999999999999996;fill-rule:nonzero;stroke:none"
       d="m 127.55904,-42.377957 -3.49967,0 0,0.779527 3.49967,0 0,-0.779527 z m -74.45308,0 -3.499667,0 0,0.779527 3.499667,0 0,-0.779527 z"
       id="rect10365-7-84-9"
       inkscape:connector-curvature="0" />
    <path
       style="opacity:0.7;fill:#ffffff;fill-opacity:0.69999999999999996;fill-rule:nonzero;stroke:none"
       d="m 127.55904,-45.921264 -3.49967,0 0,0.779527 3.49967,0 0,-0.779527 z m -74.45308,0 -3.499667,0 0,0.779527 3.499667,0 0,-0.779527 z"
       id="rect10365-7-80-9"
       inkscape:connector-curvature="0" />
    <path
       style="opacity:0.7;fill:#ffffff;fill-opacity:0.69999999999999996;fill-rule:nonzero;stroke:none"
       d="m 127.55904,-49.464571 -3.49967,0 0,0.779527 3.49967,0 0,-0.779527 z m -74.45308,0 -3.499667,0 0,0.779527 3.499667,0 0,-0.779527 z"
       id="rect10365-7-7-3"
       inkscape:connector-curvature="0" />
    <path
       style="opacity:0.7;fill:#ffffff;fill-opacity:0.69999999999999996;fill-rule:nonzero;stroke:none"
       d="m 127.55904,-53.007878 -3.49967,0 0,0.779527 3.49967,0 0,-0.779527 z m -74.45308,0 -3.499667,0 0,0.779527 3.499667,0 0,-0.779527 z"
       id="rect10365-7-9-8"
       inkscape:connector-curvature="0" />
    <path
       style="opacity:0.7;fill:#ffffff;fill-opacity:0.69999999999999996;fill-rule:nonzero;stroke:none"
       d="m 127.55904,-56.551185 -3.49967,0 0,0.779527 3.49967,0 0,-0.779527 z m -74.45308,0 -3.499667,0 0,0.779527 3.499667,0 0,-0.779527 z"
       id="rect10365-7-89-4"
       inkscape:connector-curvature="0" />
    <path
       style="opacity:0.7;fill:#ffffff;fill-opacity:0.69999999999999996;fill-rule:nonzero;stroke:none"
       d="m 127.55904,-60.094492 -3.49967,0 0,0.779528 3.49967,0 0,-0.779528 z m -74.45308,0 -3.499667,0 0,0.779528 3.499667,0 0,-0.779528 z"
       id="rect10365-7-6-3"
       inkscape:connector-curvature="0" />
    <path
       style="opacity:0.7;fill:#ffffff;fill-opacity:0.69999999999999996;fill-rule:nonzero;stroke:none"
       d="m 127.55904,-63.637799 -3.49967,0 0,0.779528 3.49967,0 0,-0.779528 z m -74.45308,0 -3.499667,0 0,0.779528 3.499667,0 0,-0.779528 z"
       id="rect10365-7-77-7"
       inkscape:connector-curvature="0" />
    <path
       style="opacity:0.7;fill:#ffffff;fill-opacity:0.69999999999999996;fill-rule:nonzero;stroke:none"
       d="m 127.55904,-67.181106 -3.49967,0 0,0.779528 3.49967,0 0,-0.779528 z m -74.45308,0 -3.499667,0 0,0.779528 3.499667,0 0,-0.779528 z"
       id="rect10365-7-2-4"
       inkscape:connector-curvature="0" />
    <path
       style="opacity:0.7;fill:#ffffff;fill-opacity:0.69999999999999996;fill-rule:nonzero;stroke:none"
       d="m 127.55904,-70.724413 -3.49967,0 0,0.779528 3.49967,0 0,-0.779528 z m -74.45308,0 -3.499667,0 0,0.779528 3.499667,0 0,-0.779528 z"
       id="rect10365-7-3-7"
       inkscape:connector-curvature="0" />
    <path
       style="opacity:0.7;fill:#ffffff;fill-opacity:0.69999999999999996;fill-rule:nonzero;stroke:none"
       d="m 127.55904,-74.267719 -3.49967,0 0,0.779527 3.49967,0 0,-0.779527 z m -74.45308,0 -3.499667,0 0,0.779527 3.499667,0 0,-0.779527 z"
       id="rect10365-7-37-7"
       inkscape:connector-curvature="0" />
    <path
       style="opacity:0.7;fill:#ffffff;fill-opacity:0.69999999999999996;fill-rule:nonzero;stroke:none"
       d="m 127.55904,-81.354333 -3.49967,0 0,0.779527 3.49967,0 0,-0.779527 z m -74.45308,0 -3.499667,0 0,0.779527 3.499667,0 0,-0.779527 z"
       id="rect10365-7-0-5"
       inkscape:connector-curvature="0" />
    <path
       style="opacity:0.7;fill:#ffffff;fill-opacity:0.69999999999999996;fill-rule:nonzero;stroke:none"
       d="m 127.55904,-77.811026 -3.49967,0 0,0.779527 3.49967,0 0,-0.779527 z m -74.45308,0 -3.499667,0 0,0.779527 3.499667,0 0,-0.779527 z"
       id="rect10365-7-4-6"
       inkscape:connector-curvature="0" />
    <path
       style="opacity:0.7;fill:#ffffff;fill-opacity:0.69999999999999996;fill-rule:nonzero;stroke:none"
       d="m 127.55904,-84.89764 -3.49967,0 0,0.779527 3.49967,0 0,-0.779527 z m -74.45308,0 -3.499667,0 0,0.779527 3.499667,0 0,-0.779527 z"
       id="rect10365-7-86-5"
       inkscape:connector-curvature="0" />
    <path
       style="opacity:0.7;fill:#ffffff;fill-opacity:0.69999999999999996;fill-rule:nonzero;stroke:none"
       d="m 127.55904,-88.440947 -3.49967,0 0,0.779527 3.49967,0 0,-0.779527 z m -74.45308,0 -3.499667,0 0,0.779527 3.499667,0 0,-0.779527 z"
       id="rect10365-7-07-4"
       inkscape:connector-curvature="0" />
    <path
       style="opacity:0.7;fill:#ffffff;fill-opacity:0.69999999999999996;fill-rule:nonzero;stroke:none"
       d="m 127.55904,-91.984254 -3.49967,0 0,0.779528 3.49967,0 0,-0.779528 z m -74.45308,0 -3.499667,0 0,0.779528 3.499667,0 0,-0.779528 z"
       id="rect10365-7-64-6"
       inkscape:connector-curvature="0" />
    <path
       style="opacity:0.7;fill:#ffffff;fill-opacity:0.69999999999999996;fill-rule:nonzero;stroke:none"
       d="m 127.55904,-37.062997 -3.49967,0 0,0.779527 3.49967,0 0,-0.779527 z m -74.45308,0 -3.499667,0 0,0.779527 3.499667,0 0,-0.779527 z"
       id="rect10365-7-648-0"
       inkscape:connector-curvature="0" />
    <path
       style="opacity:0.7;fill:#ffffff;fill-opacity:0.69999999999999996;fill-rule:nonzero;stroke:none"
       d="m 127.55904,-40.606304 -3.49967,0 0,0.779528 3.49967,0 0,-0.779528 z m -74.45308,0 -3.499667,0 0,0.779528 3.499667,0 0,-0.779528 z"
       id="rect10365-7-40-2"
       inkscape:connector-curvature="0" />
    <path
       style="opacity:0.7;fill:#ffffff;fill-opacity:0.69999999999999996;fill-rule:nonzero;stroke:none"
       d="m 127.55904,-44.149611 -3.49967,0 0,0.779528 3.49967,0 0,-0.779528 z m -74.45308,0 -3.499667,0 0,0.779528 3.499667,0 0,-0.779528 z"
       id="rect10365-7-96-3"
       inkscape:connector-curvature="0" />
    <path
       style="opacity:0.7;fill:#ffffff;fill-opacity:0.69999999999999996;fill-rule:nonzero;stroke:none"
       d="m 127.55904,-47.692918 -3.49967,0 0,0.779528 3.49967,0 0,-0.779528 z m -74.45308,0 -3.499667,0 0,0.779528 3.499667,0 0,-0.779528 z"
       id="rect10365-7-97-3"
       inkscape:connector-curvature="0" />
    <path
       style="opacity:0.7;fill:#ffffff;fill-opacity:0.69999999999999996;fill-rule:nonzero;stroke:none"
       d="m 127.55904,-51.236225 -3.49967,0 0,0.779528 3.49967,0 0,-0.779528 z m -74.45308,0 -3.499667,0 0,0.779528 3.499667,0 0,-0.779528 z"
       id="rect10365-7-27-4"
       inkscape:connector-curvature="0" />
    <path
       style="opacity:0.7;fill:#ffffff;fill-opacity:0.69999999999999996;fill-rule:nonzero;stroke:none"
       d="m 127.55904,-54.779531 -3.49967,0 0,0.779527 3.49967,0 0,-0.779527 z m -74.45308,0 -3.499667,0 0,0.779527 3.499667,0 0,-0.779527 z"
       id="rect10365-7-71-9"
       inkscape:connector-curvature="0" />
    <path
       style="opacity:0.7;fill:#ffffff;fill-opacity:0.69999999999999996;fill-rule:nonzero;stroke:none"
       d="m 127.55904,-58.322838 -3.49967,0 0,0.779527 3.49967,0 0,-0.779527 z m -74.45308,0 -3.499667,0 0,0.779527 3.499667,0 0,-0.779527 z"
       id="rect10365-7-861-3"
       inkscape:connector-curvature="0" />
    <path
       style="opacity:0.7;fill:#ffffff;fill-opacity:0.69999999999999996;fill-rule:nonzero;stroke:none"
       d="m 127.55904,-61.866145 -3.49967,0 0,0.779527 3.49967,0 0,-0.779527 z m -74.45308,0 -3.499667,0 0,0.779527 3.499667,0 0,-0.779527 z"
       id="rect10365-7-65-6"
       inkscape:connector-curvature="0" />
    <path
       style="opacity:0.7;fill:#ffffff;fill-opacity:0.69999999999999996;fill-rule:nonzero;stroke:none"
       d="m 127.55904,-65.409452 -3.49967,0 0,0.779527 3.49967,0 0,-0.779527 z m -74.45308,0 -3.499667,0 0,0.779527 3.499667,0 0,-0.779527 z"
       id="rect10365-7-898-5"
       inkscape:connector-curvature="0" />
    <path
       style="opacity:0.7;fill:#ffffff;fill-opacity:0.69999999999999996;fill-rule:nonzero;stroke:none"
       d="m 127.55904,-68.952759 -3.49967,0 0,0.779527 3.49967,0 0,-0.779527 z m -74.45308,0 -3.499667,0 0,0.779527 3.499667,0 0,-0.779527 z"
       id="rect10365-7-38-9"
       inkscape:connector-curvature="0" />
    <path
       style="opacity:0.7;fill:#ffffff;fill-opacity:0.69999999999999996;fill-rule:nonzero;stroke:none"
       d="m 127.55904,-72.496066 -3.49967,0 0,0.779527 3.49967,0 0,-0.779527 z m -74.45308,0 -3.499667,0 0,0.779527 3.499667,0 0,-0.779527 z"
       id="rect10365-7-17-8"
       inkscape:connector-curvature="0" />
    <path
       style="opacity:0.7;fill:#ffffff;fill-opacity:0.69999999999999996;fill-rule:nonzero;stroke:none"
       d="m 127.55904,-76.039373 -3.49967,0 0,0.779528 3.49967,0 0,-0.779528 z m -74.45308,0 -3.499667,0 0,0.779528 3.499667,0 0,-0.779528 z"
       id="rect10365-7-67-1"
       inkscape:connector-curvature="0" />
    <path
       style="opacity:0.7;fill:#ffffff;fill-opacity:0.69999999999999996;fill-rule:nonzero;stroke:none"
       d="m 127.55904,-79.58268 -3.49967,0 0,0.779528 3.49967,0 0,-0.779528 z m -74.45308,0 -3.499667,0 0,0.779528 3.499667,0 0,-0.779528 z"
       id="rect10365-7-05-0"
       inkscape:connector-curvature="0" />
    <path
       style="opacity:0.7;fill:#ffffff;fill-opacity:0.69999999999999996;fill-rule:nonzero;stroke:none"
       d="m 127.55904,-83.125987 -3.49967,0 0,0.779528 3.49967,0 0,-0.779528 z m -74.45308,0 -3.499667,0 0,0.779528 3.499667,0 0,-0.779528 z"
       id="rect10365-7-5-9"
       inkscape:connector-curvature="0" />
    <path
       style="opacity:0.7;fill:#ffffff;fill-opacity:0.69999999999999996;fill-rule:nonzero;stroke:none"
       d="m 127.55904,-86.669294 -3.49967,0 0,0.779528 3.49967,0 0,-0.779528 z m -74.45308,0 -3.499667,0 0,0.779528 3.499667,0 0,-0.779528 z"
       id="rect10365-7-61-4"
       inkscape:connector-curvature="0" />
    <path
       style="opacity:0.7;fill:#ffffff;fill-opacity:0.69999999999999996;fill-rule:nonzero;stroke:none"
       d="m 127.55904,-90.2126 -3.49967,0 0,0.779527 3.49967,0 0,-0.779527 z m -74.45308,0 -3.499667,0 0,0.779527 3.499667,0 0,-0.779527 z"
       id="rect10365-7-04-2"
       inkscape:connector-curvature="0" />
    <path
       style="opacity:0.7;fill:#ffffff;fill-opacity:0.69999999999999996;fill-rule:nonzero;stroke:none"
       d="m 127.55904,-93.755907 -3.49967,0 0,0.779527 3.49967,0 0,-0.779527 z m -74.45308,0 -3.499667,0 0,0.779527 3.499667,0 0,-0.779527 z"
       id="rect10365-7-82-0"
       inkscape:connector-curvature="0" />
    <path
       style="opacity:0.7;fill:#ffffff;fill-opacity:0.69999999999999996;fill-rule:nonzero;stroke:none"
       d="m 127.55904,-95.527561 -3.49967,0 0,0.779528 3.49967,0 0,-0.779528 z m -74.45308,0 -3.499667,0 0,0.779528 3.499667,0 0,-0.779528 z"
       id="rect10365-7-66-3"
       inkscape:connector-curvature="0" />
    <text
       xml:space="preserve"
       style="font-size:6px;font-style:normal;font-weight:normal;line-height:125%;letter-spacing:0px;word-spacing:0px;fill:#ffffff;fill-opacity:1;stroke:none;font-family:Sans;opacity:0.7"
       x="57.256985"
       y="-61.612545"
       id="text3481"
       sodipodi:linespacing="125%"><tspan
         sodipodi:role="line"
         x="57.256985"
         y="-61.612545"
         id="tspan3485"
         style="font-size:13.99999904999999956px">LQFP144</tspan></text>
  </g>
</svg>
