<?xml version="1.0" encoding="UTF-8" standalone="no"?>
<!-- Created with Inkscape (http://www.inkscape.org/) -->

<svg
   xmlns:dc="http://purl.org/dc/elements/1.1/"
   xmlns:cc="http://creativecommons.org/ns#"
   xmlns:rdf="http://www.w3.org/1999/02/22-rdf-syntax-ns#"
   xmlns:svg="http://www.w3.org/2000/svg"
   xmlns="http://www.w3.org/2000/svg"
   xmlns:sodipodi="http://sodipodi.sourceforge.net/DTD/sodipodi-0.dtd"
   xmlns:inkscape="http://www.inkscape.org/namespaces/inkscape"
   width="22.6875"
   height="23.031496"
   viewBox="0 0 22.687499 23.031496"
   id="svg10381"
   version="1.1"
   inkscape:version="0.48.4 r9939"
   sodipodi:docname="SSOP20.svg">
  <title
     id="title11005">SMD Diode</title>
  <defs
     id="defs10383" />
  <sodipodi:namedview
     id="base"
     pagecolor="#ffffff"
     bordercolor="#666666"
     borderopacity="1.0"
     inkscape:pageopacity="0.0"
     inkscape:pageshadow="2"
     inkscape:zoom="22.627417"
     inkscape:cx="16.533811"
     inkscape:cy="12.300274"
     inkscape:document-units="px"
     inkscape:current-layer="layer2"
     showgrid="false"
     fit-margin-top="0"
     fit-margin-left="0"
     fit-margin-right="0"
     fit-margin-bottom="0"
     inkscape:window-width="1366"
     inkscape:window-height="744"
     inkscape:window-x="0"
     inkscape:window-y="24"
     inkscape:window-maximized="1"
     units="mm" />
  <metadata
     id="metadata10386">
    <rdf:RDF>
      <cc:Work
         rdf:about="">
        <dc:format>image/svg+xml</dc:format>
        <dc:type
           rdf:resource="http://purl.org/dc/dcmitype/StillImage" />
        <dc:title>SMD Diode</dc:title>
        <cc:license
           rdf:resource="http://creativecommons.org/publicdomain/zero/1.0/" />
        <dc:creator>
          <cc:Agent>
            <dc:title>Florian &quot;adlerweb&quot; Knodt · www.adlerweb.info</dc:title>
          </cc:Agent>
        </dc:creator>
      </cc:Work>
      <cc:License
         rdf:about="http://creativecommons.org/publicdomain/zero/1.0/">
        <cc:permits
           rdf:resource="http://creativecommons.org/ns#Reproduction" />
        <cc:permits
           rdf:resource="http://creativecommons.org/ns#Distribution" />
        <cc:permits
           rdf:resource="http://creativecommons.org/ns#DerivativeWorks" />
      </cc:License>
    </rdf:RDF>
  </metadata>
  <g
     inkscape:label="Ebene 1"
     inkscape:groupmode="layer"
     id="layer1"
     transform="translate(270.97259,315.45007)"
     style="display:none">
    <g
       transform="translate(-653.35101,-604.95987)"
       id="g10962">
      <rect
         ry="0"
         y="286.65656"
         x="382.20642"
         height="25.702442"
         width="67.700294"
         id="rect10268-4-9"
         style="fill:#9a9a9a;fill-opacity:0.7;fill-rule:nonzero;stroke:none" />
      <rect
         style="fill:#2b2b2b;fill-opacity:0.7;fill-rule:nonzero;stroke:none"
         id="rect10270-7-0"
         width="43.810169"
         height="25.677378"
         x="394.15146"
         y="286.66907"
         ry="0" />
      <rect
         y="286.65573"
         x="429.41965"
         height="25.698103"
         width="8.536272"
         id="rect10349"
         style="fill:#d6d6d6;fill-opacity:0.7;fill-rule:nonzero;stroke:none" />
    </g>
  </g>
  <g
     inkscape:groupmode="layer"
     id="layer2"
     inkscape:label="Layer"
     transform="translate(-0.17199753,0.17199999)">
    <rect
       style="opacity:0.7;fill:#000000;fill-opacity:0.7;fill-rule:nonzero;stroke:none"
       id="rect10361"
       width="15.590551"
       height="23.031496"
       x="3.7204714"
       y="-0.17200002"
       ry="0" />
    <text
       xml:space="preserve"
       style="font-size:5.99863338px;font-style:normal;font-weight:normal;line-height:125%;letter-spacing:0px;word-spacing:0px;fill:#ffffff;fill-opacity:1;stroke:none;font-family:Sans"
       x="-0.45400009"
       y="-9.3347826"
       id="text3101"
       sodipodi:linespacing="125%"
       transform="matrix(0,1.0002278,-0.99977221,0,0,0)"><tspan
         sodipodi:role="line"
         id="tspan3103"
         x="-0.45400009"
         y="-9.3347826"
         style="opacity:0.7;fill:#ffffff">SSOP20</tspan></text>
    <path
       style="opacity:0.7;color:#000000;fill:#f9f9f9;fill-opacity:0.72440945;fill-rule:nonzero;stroke:none;stroke-width:1;marker:none;visibility:visible;display:inline;overflow:visible;enable-background:accumulate"
       d="m 22.849162,0.60752757 -3.529642,0 0,0.78125003 3.529642,0 0,-0.78125003 z m -19.1162882,0 -3.56087719,0 0,0.78125003 3.56087719,0 0,-0.78125003 z"
       id="rect3105"
       inkscape:connector-curvature="0" />
    <path
       inkscape:connector-curvature="0"
       style="opacity:0.7;color:#000000;fill:#f9f9f9;fill-opacity:0.72440945;fill-rule:nonzero;stroke:none;stroke-width:1;marker:none;visibility:visible;display:inline;overflow:visible;enable-background:accumulate"
       d="m 22.849162,21.335875 -3.529642,0 0,0.78125 3.529642,0 0,-0.78125 z m -19.1162882,0 -3.56087719,0 0,0.78125 3.56087719,0 0,-0.78125 z"
       id="rect3105-3" />
    <path
       inkscape:connector-curvature="0"
       style="opacity:0.7;color:#000000;fill:#f9f9f9;fill-opacity:0.72440945;fill-rule:nonzero;stroke:none;stroke-width:1;marker:none;visibility:visible;display:inline;overflow:visible;enable-background:accumulate"
       d="m 22.849162,19.032725 -3.529642,0 0,0.78125 3.529642,0 0,-0.78125 z m -19.1162882,0 -3.56087719,0 0,0.78125 3.56087719,0 0,-0.78125 z"
       id="rect3105-6" />
    <path
       inkscape:connector-curvature="0"
       style="opacity:0.7;color:#000000;fill:#f9f9f9;fill-opacity:0.72440945;fill-rule:nonzero;stroke:none;stroke-width:1;marker:none;visibility:visible;display:inline;overflow:visible;enable-background:accumulate"
       d="m 22.849162,16.729575 -3.529642,0 0,0.78125 3.529642,0 0,-0.78125 z m -19.1162882,0 -3.56087719,0 0,0.78125 3.56087719,0 0,-0.78125 z"
       id="rect3105-0" />
    <path
       inkscape:connector-curvature="0"
       style="opacity:0.7;color:#000000;fill:#f9f9f9;fill-opacity:0.72440945;fill-rule:nonzero;stroke:none;stroke-width:1;marker:none;visibility:visible;display:inline;overflow:visible;enable-background:accumulate"
       d="m 22.849162,14.426426 -3.529642,0 0,0.78125 3.529642,0 0,-0.78125 z m -19.1162882,0 -3.56087719,0 0,0.78125 3.56087719,0 0,-0.78125 z"
       id="rect3105-62" />
    <path
       inkscape:connector-curvature="0"
       style="opacity:0.7;color:#000000;fill:#f9f9f9;fill-opacity:0.72440945;fill-rule:nonzero;stroke:none;stroke-width:1;marker:none;visibility:visible;display:inline;overflow:visible;enable-background:accumulate"
       d="m 22.849162,12.123276 -3.529642,0 0,0.78125 3.529642,0 0,-0.78125 z m -19.1162882,0 -3.56087719,0 0,0.78125 3.56087719,0 0,-0.78125 z"
       id="rect3105-61" />
    <path
       inkscape:connector-curvature="0"
       style="opacity:0.7;color:#000000;fill:#f9f9f9;fill-opacity:0.72440945;fill-rule:nonzero;stroke:none;stroke-width:1;marker:none;visibility:visible;display:inline;overflow:visible;enable-background:accumulate"
       d="m 22.849162,9.820126 -3.529642,0 0,0.78125 3.529642,0 0,-0.78125 z m -19.1162882,0 -3.56087719,0 0,0.78125 3.56087719,0 0,-0.78125 z"
       id="rect3105-8" />
    <path
       inkscape:connector-curvature="0"
       style="opacity:0.7;color:#000000;fill:#f9f9f9;fill-opacity:0.72440945;fill-rule:nonzero;stroke:none;stroke-width:1;marker:none;visibility:visible;display:inline;overflow:visible;enable-background:accumulate"
       d="m 22.849162,7.5169764 -3.529642,0 0,0.78125 3.529642,0 0,-0.78125 z m -19.1162882,0 -3.56087719,0 0,0.78125 3.56087719,0 0,-0.78125 z"
       id="rect3105-7" />
    <path
       inkscape:connector-curvature="0"
       style="opacity:0.7;color:#000000;fill:#f9f9f9;fill-opacity:0.72440945;fill-rule:nonzero;stroke:none;stroke-width:1;marker:none;visibility:visible;display:inline;overflow:visible;enable-background:accumulate"
       d="m 22.849162,5.2138268 -3.529642,0 0,0.78125 3.529642,0 0,-0.78125 z m -19.1162882,0 -3.56087719,0 0,0.78125 3.56087719,0 0,-0.78125 z"
       id="rect3105-9" />
    <path
       inkscape:connector-curvature="0"
       style="opacity:0.7;color:#000000;fill:#f9f9f9;fill-opacity:0.72440945;fill-rule:nonzero;stroke:none;stroke-width:1;marker:none;visibility:visible;display:inline;overflow:visible;enable-background:accumulate"
       d="m 22.849162,2.9106772 -3.529642,0 0,0.78125 3.529642,0 0,-0.78125 z m -19.1162882,0 -3.56087719,0 0,0.78125 3.56087719,0 0,-0.78125 z"
       id="rect3105-2" />
  </g>
</svg>
