<?xml version="1.0" encoding="UTF-8" standalone="no"?>
<!-- Created with Inkscape (http://www.inkscape.org/) -->

<svg
   xmlns:dc="http://purl.org/dc/elements/1.1/"
   xmlns:cc="http://creativecommons.org/ns#"
   xmlns:rdf="http://www.w3.org/1999/02/22-rdf-syntax-ns#"
   xmlns:svg="http://www.w3.org/2000/svg"
   xmlns="http://www.w3.org/2000/svg"
   xmlns:sodipodi="http://sodipodi.sourceforge.net/DTD/sodipodi-0.dtd"
   xmlns:inkscape="http://www.inkscape.org/namespaces/inkscape"
   width="22.677166"
   height="34.370079"
   viewBox="0 0 22.677165 34.370079"
   id="svg10381"
   version="1.1"
   inkscape:version="0.48.4 r9939"
   sodipodi:docname="SSOP28.svg">
  <title
     id="title11005">SMD Diode</title>
  <defs
     id="defs10383" />
  <sodipodi:namedview
     id="base"
     pagecolor="#ffffff"
     bordercolor="#666666"
     borderopacity="1.0"
     inkscape:pageopacity="0.0"
     inkscape:pageshadow="2"
     inkscape:zoom="16"
     inkscape:cx="6.6995475"
     inkscape:cy="17.418599"
     inkscape:document-units="px"
     inkscape:current-layer="layer2"
     showgrid="false"
     fit-margin-top="0"
     fit-margin-left="0"
     fit-margin-right="0"
     fit-margin-bottom="0"
     inkscape:window-width="1366"
     inkscape:window-height="744"
     inkscape:window-x="0"
     inkscape:window-y="24"
     inkscape:window-maximized="1"
     units="mm" />
  <metadata
     id="metadata10386">
    <rdf:RDF>
      <cc:Work
         rdf:about="">
        <dc:format>image/svg+xml</dc:format>
        <dc:type
           rdf:resource="http://purl.org/dc/dcmitype/StillImage" />
        <dc:title>SMD Diode</dc:title>
        <cc:license
           rdf:resource="http://creativecommons.org/publicdomain/zero/1.0/" />
        <dc:creator>
          <cc:Agent>
            <dc:title>Florian &quot;adlerweb&quot; Knodt · www.adlerweb.info</dc:title>
          </cc:Agent>
        </dc:creator>
      </cc:Work>
      <cc:License
         rdf:about="http://creativecommons.org/publicdomain/zero/1.0/">
        <cc:permits
           rdf:resource="http://creativecommons.org/ns#Reproduction" />
        <cc:permits
           rdf:resource="http://creativecommons.org/ns#Distribution" />
        <cc:permits
           rdf:resource="http://creativecommons.org/ns#DerivativeWorks" />
      </cc:License>
    </rdf:RDF>
  </metadata>
  <g
     inkscape:label="Ebene 1"
     inkscape:groupmode="layer"
     id="layer1"
     transform="translate(263.88081,324.3135)"
     style="display:none">
    <g
       transform="translate(-653.35101,-604.95987)"
       id="g10962">
      <rect
         ry="0"
         y="286.65656"
         x="382.20642"
         height="25.702442"
         width="67.700294"
         id="rect10268-4-9"
         style="fill:#9a9a9a;fill-opacity:0.7;fill-rule:nonzero;stroke:none" />
      <rect
         style="fill:#2b2b2b;fill-opacity:0.7;fill-rule:nonzero;stroke:none"
         id="rect10270-7-0"
         width="43.810169"
         height="25.677378"
         x="394.15146"
         y="286.66907"
         ry="0" />
      <rect
         y="286.65573"
         x="429.41965"
         height="25.698103"
         width="8.536272"
         id="rect10349"
         style="fill:#d6d6d6;fill-opacity:0.7;fill-rule:nonzero;stroke:none" />
    </g>
  </g>
  <g
     inkscape:groupmode="layer"
     id="layer2"
     inkscape:label="Layer"
     transform="translate(-7.263778,9.0354363)">
    <g
       id="g3145"
       transform="matrix(0,1,-1,0,26.751963,-10.452757)">
      <rect
         transform="matrix(0,-1,1,0,0,0)"
         ry="0"
         y="1.4173207"
         x="-15.944879"
         height="34.370079"
         width="15.59055"
         id="rect10361"
         style="opacity:0.7;fill:#000000;fill-opacity:0.7;fill-rule:nonzero;stroke:none" />
      <path
         inkscape:connector-curvature="0"
         id="rect3003"
         d="m 3.2421239,-3.1889793 0,3.52964142 0.78125,0 0,-3.52964142 -0.78125,0 z m 0,19.1162883 0,3.560877 0.78125,0 0,-3.560877 -0.78125,0 z"
         style="opacity:0.7;color:#000000;fill:#f9f9f9;fill-opacity:0.72440945;fill-rule:nonzero;stroke:none;stroke-width:1;marker:none;visibility:visible;display:inline;overflow:visible;enable-background:accumulate" />
      <path
         inkscape:connector-curvature="0"
         id="rect3003-6"
         d="m 33.183069,-3.1889791 0,3.52964137 0.78125,0 0,-3.52964137 -0.78125,0 z m 0,19.1162881 0,3.560877 0.78125,0 0,-3.560877 -0.78125,0 z"
         style="opacity:0.7;color:#000000;fill:#f9f9f9;fill-opacity:0.72440945;fill-rule:nonzero;stroke:none;stroke-width:1;marker:none;visibility:visible;display:inline;overflow:visible;enable-background:accumulate" />
      <path
         inkscape:connector-curvature="0"
         id="rect3003-7"
         d="m 30.879919,-3.1889791 0,3.52964137 0.78125,0 0,-3.52964137 -0.78125,0 z m 0,19.1162881 0,3.560877 0.78125,0 0,-3.560877 -0.78125,0 z"
         style="opacity:0.7;color:#000000;fill:#f9f9f9;fill-opacity:0.72440945;fill-rule:nonzero;stroke:none;stroke-width:1;marker:none;visibility:visible;display:inline;overflow:visible;enable-background:accumulate" />
      <path
         inkscape:connector-curvature="0"
         id="rect3003-5"
         d="m 28.576769,-3.1889796 0,3.52964132 0.78125,0 0,-3.52964132 -0.78125,0 z m 0,19.1162886 0,3.560877 0.78125,0 0,-3.560877 -0.78125,0 z"
         style="opacity:0.7;color:#000000;fill:#f9f9f9;fill-opacity:0.72440945;fill-rule:nonzero;stroke:none;stroke-width:1;marker:none;visibility:visible;display:inline;overflow:visible;enable-background:accumulate" />
      <path
         inkscape:connector-curvature="0"
         id="rect3003-3"
         d="m 26.27362,-3.1889791 0,3.52964137 0.78125,0 0,-3.52964137 -0.78125,0 z m 0,19.1162881 0,3.560877 0.78125,0 0,-3.560877 -0.78125,0 z"
         style="opacity:0.7;color:#000000;fill:#f9f9f9;fill-opacity:0.72440945;fill-rule:nonzero;stroke:none;stroke-width:1;marker:none;visibility:visible;display:inline;overflow:visible;enable-background:accumulate" />
      <path
         inkscape:connector-curvature="0"
         id="rect3003-56"
         d="m 23.97047,-3.1889791 0,3.52964137 0.78125,0 0,-3.52964137 -0.78125,0 z m 0,19.1162881 0,3.560877 0.78125,0 0,-3.560877 -0.78125,0 z"
         style="opacity:0.7;color:#000000;fill:#f9f9f9;fill-opacity:0.72440945;fill-rule:nonzero;stroke:none;stroke-width:1;marker:none;visibility:visible;display:inline;overflow:visible;enable-background:accumulate" />
      <path
         inkscape:connector-curvature="0"
         id="rect3003-2"
         d="m 21.667321,-3.1889791 0,3.52964137 0.78125,0 0,-3.52964137 -0.78125,0 z m 0,19.1162881 0,3.560877 0.78125,0 0,-3.560877 -0.78125,0 z"
         style="opacity:0.7;color:#000000;fill:#f9f9f9;fill-opacity:0.72440945;fill-rule:nonzero;stroke:none;stroke-width:1;marker:none;visibility:visible;display:inline;overflow:visible;enable-background:accumulate" />
      <path
         inkscape:connector-curvature="0"
         id="rect3003-9"
         d="m 19.364171,-3.1889791 0,3.52964137 0.78125,0 0,-3.52964137 -0.78125,0 z m 0,19.1162881 0,3.560877 0.78125,0 0,-3.560877 -0.78125,0 z"
         style="opacity:0.7;color:#000000;fill:#f9f9f9;fill-opacity:0.72440945;fill-rule:nonzero;stroke:none;stroke-width:1;marker:none;visibility:visible;display:inline;overflow:visible;enable-background:accumulate" />
      <path
         inkscape:connector-curvature="0"
         id="rect3003-1"
         d="m 17.061021,-3.1889791 0,3.52964137 0.78125,0 0,-3.52964137 -0.78125,0 z m 0,19.1162881 0,3.560877 0.78125,0 0,-3.560877 -0.78125,0 z"
         style="opacity:0.7;color:#000000;fill:#f9f9f9;fill-opacity:0.72440945;fill-rule:nonzero;stroke:none;stroke-width:1;marker:none;visibility:visible;display:inline;overflow:visible;enable-background:accumulate" />
      <path
         inkscape:connector-curvature="0"
         id="rect3003-27"
         d="m 14.757872,-3.1889791 0,3.52964137 0.78125,0 0,-3.52964137 -0.78125,0 z m 0,19.1162881 0,3.560877 0.78125,0 0,-3.560877 -0.78125,0 z"
         style="opacity:0.7;color:#000000;fill:#f9f9f9;fill-opacity:0.72440945;fill-rule:nonzero;stroke:none;stroke-width:1;marker:none;visibility:visible;display:inline;overflow:visible;enable-background:accumulate" />
      <path
         inkscape:connector-curvature="0"
         id="rect3003-0"
         d="m 12.454723,-3.1889795 0,3.5296414 0.781249,0 0,-3.5296414 -0.781249,0 z m 0,19.1162885 0,3.560877 0.781249,0 0,-3.560877 -0.781249,0 z"
         style="opacity:0.7;color:#000000;fill:#f9f9f9;fill-opacity:0.72440945;fill-rule:nonzero;stroke:none;stroke-width:1;marker:none;visibility:visible;display:inline;overflow:visible;enable-background:accumulate" />
      <path
         inkscape:connector-curvature="0"
         id="rect3003-93"
         d="m 10.151573,-3.1889791 0,3.52964137 0.78125,0 0,-3.52964137 -0.78125,0 z m 0,19.1162881 0,3.560877 0.78125,0 0,-3.560877 -0.78125,0 z"
         style="opacity:0.7;color:#000000;fill:#f9f9f9;fill-opacity:0.72440945;fill-rule:nonzero;stroke:none;stroke-width:1;marker:none;visibility:visible;display:inline;overflow:visible;enable-background:accumulate" />
      <path
         inkscape:connector-curvature="0"
         id="rect3003-60"
         d="m 7.8484231,-3.1889791 0,3.52964137 0.78125,0 0,-3.52964137 -0.78125,0 z m 0,19.1162881 0,3.560877 0.78125,0 0,-3.560877 -0.78125,0 z"
         style="opacity:0.7;color:#000000;fill:#f9f9f9;fill-opacity:0.72440945;fill-rule:nonzero;stroke:none;stroke-width:1;marker:none;visibility:visible;display:inline;overflow:visible;enable-background:accumulate" />
      <path
         inkscape:connector-curvature="0"
         id="rect3003-62"
         d="m 5.5452735,-3.1889791 0,3.52964137 0.78125,0 0,-3.52964137 -0.78125,0 z m 0,19.1162881 0,3.560877 0.78125,0 0,-3.560877 -0.78125,0 z"
         style="opacity:0.7;color:#000000;fill:#f9f9f9;fill-opacity:0.72440945;fill-rule:nonzero;stroke:none;stroke-width:1;marker:none;visibility:visible;display:inline;overflow:visible;enable-background:accumulate" />
      <text
         sodipodi:linespacing="125%"
         id="text3137"
         y="11.425727"
         x="0.91437191"
         style="font-size:6px;font-style:normal;font-weight:normal;line-height:125%;letter-spacing:0px;word-spacing:0px;opacity:0.7;fill:#ffffff;fill-opacity:1;stroke:none;font-family:Sans"
         xml:space="preserve"><tspan
           style="font-size:9px;fill:#ffffff"
           id="tspan3141"
           y="11.425727"
           x="0.91437191"
           sodipodi:role="line">SSOP28</tspan></text>
    </g>
  </g>
</svg>
